<svg width="10" height="10" viewBox="0 0 10 10" fill="none" xmlns="http://www.w3.org/2000/svg">
<path d="M8.98337 0.983984L8.45004 0.450651C8.31671 0.317318 8.11671 0.317318 8.05004 0.383984L4.71671 3.71732L1.38337 0.383984C1.25004 0.317318 1.05004 0.317318 0.983374 0.383984L0.383374 0.983984C0.316707 1.05065 0.316707 1.25065 0.383374 1.31732L3.71671 4.65065L0.383374 7.98398C0.316707 8.11732 0.316707 8.31732 0.383374 8.38399L0.983374 8.98398C1.11671 9.11732 1.25004 9.11732 1.38337 8.98398L4.71671 5.65065L8.05004 8.98398C8.18337 9.11732 8.31671 9.11732 8.45004 8.98398L8.98337 8.45065C9.11671 8.31732 9.11671 8.18399 8.98337 8.05065L5.65004 4.71732L8.98337 1.38398C9.05004 1.25065 9.05004 1.05065 8.98337 0.983984Z" fill="white"/>
</svg>
