<svg width="48" height="46" viewBox="0 0 48 46" fill="none" xmlns="http://www.w3.org/2000/svg">
<path d="M39.638 1.66669H8.3623V4.95887H39.638V1.66669Z" stroke="#6AB339" stroke-width="2" stroke-miterlimit="10" stroke-linecap="round" stroke-linejoin="round"/>
<path d="M39.6379 4.95886H8.36219L1.77783 13.1893H46.2223L39.6379 4.95886Z" stroke="#6AB339" stroke-width="2" stroke-miterlimit="10" stroke-linecap="round" stroke-linejoin="round"/>
<path d="M21.5308 28.0042H11.6543V37.8807H21.5308V28.0042Z" stroke="#6AB339" stroke-width="2" stroke-miterlimit="10" stroke-linecap="round" stroke-linejoin="round"/>
<path d="M36.3458 28.0042H26.4692V44.465H36.3458V28.0042Z" stroke="#6AB339" stroke-width="2" stroke-miterlimit="10" stroke-linecap="round" stroke-linejoin="round"/>
<path d="M1.77783 13.1893V18.1276" stroke="#6AB339" stroke-width="2" stroke-miterlimit="10" stroke-linecap="round" stroke-linejoin="round"/>
<path d="M10.6667 13.1893V18.1276" stroke="#6AB339" stroke-width="2" stroke-miterlimit="10" stroke-linecap="round" stroke-linejoin="round"/>
<path d="M19.5557 13.1893V18.1276" stroke="#6AB339" stroke-width="2" stroke-miterlimit="10" stroke-linecap="round" stroke-linejoin="round"/>
<path d="M28.4443 13.1893V18.1276" stroke="#6AB339" stroke-width="2" stroke-miterlimit="10" stroke-linecap="round" stroke-linejoin="round"/>
<path d="M37.3333 13.1893V18.1276" stroke="#6AB339" stroke-width="2" stroke-miterlimit="10" stroke-linecap="round" stroke-linejoin="round"/>
<path d="M46.2222 13.1893V18.1276" stroke="#6AB339" stroke-width="2" stroke-miterlimit="10" stroke-linecap="round" stroke-linejoin="round"/>
<path d="M14.6174 4.95886L10.6667 13.1893" stroke="#6AB339" stroke-width="2" stroke-miterlimit="10" stroke-linecap="round" stroke-linejoin="round"/>
<path d="M20.8725 4.95886L19.5557 13.1893" stroke="#6AB339" stroke-width="2" stroke-miterlimit="10" stroke-linecap="round" stroke-linejoin="round"/>
<path d="M27.1277 4.95886L28.4446 13.1893" stroke="#6AB339" stroke-width="2" stroke-miterlimit="10" stroke-linecap="round" stroke-linejoin="round"/>
<path d="M33.3828 4.95886L37.3334 13.1893" stroke="#6AB339" stroke-width="2" stroke-miterlimit="10" stroke-linecap="round" stroke-linejoin="round"/>
<path d="M10.6667 18.1276C10.6667 20.5967 8.69141 22.572 6.22228 22.572C3.75314 22.572 1.77783 20.5967 1.77783 18.1276" stroke="#6AB339" stroke-width="2" stroke-miterlimit="10" stroke-linecap="round" stroke-linejoin="round"/>
<path d="M19.5556 18.1276C19.5556 20.5967 17.5803 22.572 15.1112 22.572C12.6421 22.572 10.6667 20.5967 10.6667 18.1276" stroke="#6AB339" stroke-width="2" stroke-miterlimit="10" stroke-linecap="round" stroke-linejoin="round"/>
<path d="M28.4446 18.1276C28.4446 20.5967 26.4692 22.572 24.0001 22.572C21.531 22.572 19.5557 20.5967 19.5557 18.1276" stroke="#6AB339" stroke-width="2" stroke-miterlimit="10" stroke-linecap="round" stroke-linejoin="round"/>
<path d="M37.3332 18.1276C37.3332 20.5967 35.3579 22.572 32.8888 22.572C30.4196 22.572 28.4443 20.5967 28.4443 18.1276" stroke="#6AB339" stroke-width="2" stroke-miterlimit="10" stroke-linecap="round" stroke-linejoin="round"/>
<path d="M46.2221 18.1276C46.2221 20.5967 44.2468 22.572 41.7777 22.572C39.3086 22.572 37.3333 20.5967 37.3333 18.1276" stroke="#6AB339" stroke-width="2" stroke-miterlimit="10" stroke-linecap="round" stroke-linejoin="round"/>
<path d="M5.07007 22.4074V44.465H42.9301V22.4074" stroke="#6AB339" stroke-width="2" stroke-miterlimit="10" stroke-linecap="round" stroke-linejoin="round"/>
</svg>
