<svg width="60" height="40" viewBox="0 0 60 40" fill="none" xmlns="http://www.w3.org/2000/svg">
<path d="M22 14.7333L27.8667 18.2888" stroke="#6AB339" stroke-width="2" stroke-miterlimit="10" stroke-linecap="round" stroke-linejoin="round"/>
<path d="M26.2666 25.2222C24.8444 26.6444 22.5333 26.9999 20.5777 25.9333C18.4444 24.6888 17.5555 21.8444 18.9777 19.711L24.6666 9.75547C25.9111 7.62214 28.7555 6.73325 30.8889 8.15547C33.0222 9.5777 33.9111 12.2444 32.4889 14.3777L30.5333 17.9333" stroke="#6AB339" stroke-width="2" stroke-miterlimit="10" stroke-linecap="round" stroke-linejoin="round"/>
<path d="M29.9999 27C32.5527 27 34.6221 24.9305 34.6221 22.3777C34.6221 19.8249 32.5527 17.7555 29.9999 17.7555C27.4471 17.7555 25.3777 19.8249 25.3777 22.3777C25.3777 24.9305 27.4471 27 29.9999 27Z" stroke="#6AB339" stroke-width="2" stroke-miterlimit="10" stroke-linecap="round" stroke-linejoin="round"/>
<path d="M30 17.7555V27" stroke="#6AB339" stroke-width="2" stroke-miterlimit="10" stroke-linecap="round" stroke-linejoin="round"/>
<path d="M12.2223 33.2222H6.88892V1.22217H42.4445V33.2222H21.1112" stroke="#6AB339" stroke-width="2" stroke-miterlimit="10" stroke-linecap="round" stroke-linejoin="round"/>
<path d="M44.2224 33.2222H42.4446V20.7777H56.6668C57.7335 20.7777 58.4446 21.4888 58.4446 22.5555V31.4444C58.4446 32.5111 57.7335 33.2222 56.6668 33.2222H52.9335" stroke="#6AB339" stroke-width="2" stroke-miterlimit="10" stroke-linecap="round" stroke-linejoin="round"/>
<path d="M42.4446 20.7777H54.8891L53.1113 11.8888H42.4446V20.7777Z" stroke="#6AB339" stroke-width="2" stroke-miterlimit="10" stroke-linecap="round" stroke-linejoin="round"/>
<path d="M42.4446 11.8888H53.1113C54.1779 11.8888 54.8891 11.1777 54.8891 10.111C54.8891 9.04436 54.1779 8.33325 53.1113 8.33325H42.4446V11.8888Z" stroke="#6AB339" stroke-width="2" stroke-miterlimit="10" stroke-linecap="round" stroke-linejoin="round"/>
<path d="M5.11133 24.3333H12.2224" stroke="#6AB339" stroke-width="2" stroke-miterlimit="10" stroke-linecap="round" stroke-linejoin="round"/>
<path d="M1.55566 27.8889H8.66678" stroke="#6AB339" stroke-width="2" stroke-miterlimit="10" stroke-linecap="round" stroke-linejoin="round"/>
<path d="M16.6669 38.5555C19.1215 38.5555 21.1113 36.5657 21.1113 34.1111C21.1113 31.6565 19.1215 29.6666 16.6669 29.6666C14.2123 29.6666 12.2224 31.6565 12.2224 34.1111C12.2224 36.5657 14.2123 38.5555 16.6669 38.5555Z" stroke="#6AB339" stroke-width="2" stroke-miterlimit="10" stroke-linecap="round" stroke-linejoin="round"/>
<path d="M48.6669 38.5555C51.1215 38.5555 53.1113 36.5657 53.1113 34.1111C53.1113 31.6565 51.1215 29.6666 48.6669 29.6666C46.2123 29.6666 44.2224 31.6565 44.2224 34.1111C44.2224 36.5657 46.2123 38.5555 48.6669 38.5555Z" stroke="#6AB339" stroke-width="2" stroke-miterlimit="10" stroke-linecap="round" stroke-linejoin="round"/>
</svg>
