<svg width="44" height="48" viewBox="0 0 44 48" fill="none" xmlns="http://www.w3.org/2000/svg">
<path d="M8.44461 39.1112H1.3335L8.44461 46.2223V39.1112Z" stroke="#6AB339" stroke-width="2" stroke-miterlimit="10" stroke-linecap="round" stroke-linejoin="round"/>
<path d="M13.4224 10.6667H25.8668" stroke="#6AB339" stroke-width="2" stroke-miterlimit="10" stroke-linecap="round" stroke-linejoin="round"/>
<path d="M13.4224 16.0001H23.5557" stroke="#6AB339" stroke-width="2" stroke-miterlimit="10" stroke-linecap="round" stroke-linejoin="round"/>
<path d="M13.4224 21.3334H17.3335" stroke="#6AB339" stroke-width="2" stroke-miterlimit="10" stroke-linecap="round" stroke-linejoin="round"/>
<path d="M10.0781 10.6667C10.0781 10.8815 9.90396 11.0556 9.68918 11.0556C9.4744 11.0556 9.30029 10.8815 9.30029 10.6667C9.30029 10.4519 9.4744 10.2778 9.68918 10.2778C9.90396 10.2778 10.0781 10.4519 10.0781 10.6667Z" fill="#6AB339" stroke="#6AB339"/>
<path d="M10.0781 16.0001C10.0781 16.2149 9.90396 16.389 9.68918 16.389C9.47441 16.389 9.30029 16.2149 9.30029 16.0001C9.30029 15.7853 9.47441 15.6112 9.68918 15.6112C9.90396 15.6112 10.0781 15.7853 10.0781 16.0001Z" fill="#6AB339" stroke="#6AB339"/>
<path d="M13.4224 26.6667H23.5557" stroke="#6AB339" stroke-width="2" stroke-miterlimit="10" stroke-linecap="round" stroke-linejoin="round"/>
<path d="M10.0781 26.6667C10.0781 26.8815 9.90396 27.0556 9.68918 27.0556C9.4744 27.0556 9.30029 26.8815 9.30029 26.6667C9.30029 26.4519 9.4744 26.2778 9.68918 26.2778C9.90396 26.2778 10.0781 26.4519 10.0781 26.6667Z" fill="#6AB339" stroke="#6AB339"/>
<path d="M10.0781 21.3333C10.0781 21.5481 9.90396 21.7222 9.68918 21.7222C9.4744 21.7222 9.30029 21.5481 9.30029 21.3333C9.30029 21.1186 9.4744 20.9445 9.68918 20.9445C9.90396 20.9445 10.0781 21.1186 10.0781 21.3333Z" fill="#6AB339" stroke="#6AB339"/>
<path d="M33.3337 46.2222C38.2429 46.2222 42.2226 42.2425 42.2226 37.3333C42.2226 32.4241 38.2429 28.4445 33.3337 28.4445C28.4245 28.4445 24.4448 32.4241 24.4448 37.3333C24.4448 42.2425 28.4245 46.2222 33.3337 46.2222Z" stroke="#6AB339" stroke-width="2" stroke-miterlimit="10" stroke-linecap="round" stroke-linejoin="round"/>
<path d="M33.3335 46.2223H8.44461L1.3335 39.1112V1.77783H33.3335V28.4445" stroke="#6AB339" stroke-width="2" stroke-miterlimit="10" stroke-linecap="round" stroke-linejoin="round"/>
<path d="M33.3335 37.3333L37.4224 33.9556" stroke="#6AB339" stroke-width="2" stroke-miterlimit="10" stroke-linecap="round" stroke-linejoin="round"/>
<path d="M33.3334 37.3334L31.5557 34.3112" stroke="#6AB339" stroke-width="2" stroke-miterlimit="10" stroke-linecap="round" stroke-linejoin="round"/>
</svg>
