<svg width="25" height="24" viewBox="0 0 25 24" fill="none" xmlns="http://www.w3.org/2000/svg">
<path d="M8.71542 21.9998H7.09378C6.49919 21.9998 6.0127 21.5146 6.0127 20.9216V19.2505H9.79651V20.9216C9.79651 21.5146 9.31002 21.9998 8.71542 21.9998Z" fill="white"/>
<path d="M17.9054 21.9998H16.2837C15.6891 21.9998 15.2026 21.5146 15.2026 20.9216V19.2505H18.9864V20.9216C18.9864 21.5146 18.5 21.9998 17.9054 21.9998Z" fill="white"/>
<path d="M22.5001 9.00834V10.6256C22.5001 11.2186 22.0136 11.7037 21.419 11.7037H21.0946C20.9757 11.7037 20.8784 11.6067 20.8784 11.4881V8.14581C20.8784 8.02721 20.9757 7.93018 21.0946 7.93018H21.419C22.0136 7.93018 22.5001 8.41535 22.5001 9.00834Z" fill="white"/>
<path d="M2.5 10.6256V9.00834C2.5 8.41535 2.98649 7.93018 3.58109 7.93018H3.90542C4.02434 7.93018 4.12163 8.02721 4.12163 8.14581V11.4881C4.12163 11.6067 4.02434 11.7037 3.90542 11.7037H3.58109C2.98649 11.7037 2.5 11.2186 2.5 10.6256Z" fill="white"/>
<path d="M17.0946 2H7.90538C6.11077 2 4.66211 3.44474 4.66211 5.23449V18.1724C4.66211 18.7654 5.1486 19.2506 5.7432 19.2506H19.2568C19.8514 19.2506 20.3379 18.7654 20.3379 18.1724V5.23449C20.3379 3.44474 18.8892 2 17.0946 2ZM10.3378 4.15633H14.6622C14.9649 4.15633 15.2027 4.39352 15.2027 4.69541C15.2027 4.99729 14.9649 5.23449 14.6622 5.23449H10.3378C10.0351 5.23449 9.79728 4.99729 9.79728 4.69541C9.79728 4.39352 10.0351 4.15633 10.3378 4.15633ZM6.28374 7.39082C6.28374 7.08893 6.52158 6.85173 6.82429 6.85173H18.1757C18.4784 6.85173 18.7163 7.08893 18.7163 7.39082V13.8598C18.7163 14.1617 18.4784 14.3989 18.1757 14.3989H6.82429C6.52158 14.3989 6.28374 14.1617 6.28374 13.8598V7.39082ZM7.09456 18.1724C6.34861 18.1724 5.7432 17.5687 5.7432 16.8247C5.7432 16.0808 6.34861 15.477 7.09456 15.477C7.84051 15.477 8.44592 16.0808 8.44592 16.8247C8.44592 17.5687 7.84051 18.1724 7.09456 18.1724ZM17.9055 18.1724C17.1595 18.1724 16.5541 17.5687 16.5541 16.8247C16.5541 16.0808 17.1595 15.477 17.9055 15.477C18.6514 15.477 19.2568 16.0808 19.2568 16.8247C19.2568 17.5687 18.6514 18.1724 17.9055 18.1724Z" fill="white"/>
</svg>
