<svg width="25" height="24" viewBox="0 0 25 24" fill="none" xmlns="http://www.w3.org/2000/svg">
<path d="M23.4999 10.8611C23.4999 11.4376 23.0282 11.9093 22.4517 11.9093H20.3555V9.81299H22.4517C23.0282 9.81299 23.4999 10.2847 23.4999 10.8611Z" fill="white"/>
<path d="M1.5 10.8611C1.5 10.2847 1.97166 9.81299 2.54814 9.81299H4.64442V11.9093H2.54814C1.97166 11.9093 1.5 11.4376 1.5 10.8611Z" fill="white"/>
<path d="M5.69261 20.3469H4.12041C3.54393 20.3469 3.07227 19.8752 3.07227 19.2987V16.1543H6.74075V19.2987C6.74075 19.8752 6.26909 20.3469 5.69261 20.3469Z" fill="white"/>
<path d="M20.8904 20.3469H19.3182C18.7417 20.3469 18.27 19.8752 18.27 19.2987V16.1543H21.9385V19.2987C21.9385 19.8752 21.4668 20.3469 20.8904 20.3469Z" fill="white"/>
<path d="M21.6872 9.73954L19.2031 3.95381C18.9516 3.37733 18.3856 3 17.7567 3H7.25434C6.62546 3 6.05946 3.37733 5.80791 3.95381L3.32382 9.73954C3.15612 10.1378 3.07227 10.5571 3.07227 10.9868V17.674H21.9388V10.9868C21.9388 10.5571 21.8549 10.1378 21.6872 9.73954ZM5.69261 8.70188L7.25434 5.20109C7.42204 4.81328 7.78889 4.57221 8.20815 4.57221H16.8029C17.2221 4.57221 17.589 4.81328 17.7567 5.19061L19.3184 8.70188C19.4442 8.97439 19.2346 9.28884 18.9306 9.28884H6.08043C5.77647 9.28884 5.56684 8.97439 5.69261 8.70188ZM7.26482 15.0326H5.16854C4.59207 15.0326 4.12041 14.561 4.12041 13.9845C4.12041 13.408 4.59207 12.9364 5.16854 12.9364H7.26482C7.8413 12.9364 8.31296 13.408 8.31296 13.9845C8.31296 14.561 7.8413 15.0326 7.26482 15.0326ZM14.6332 14.5086H10.4407C10.1472 14.5086 9.91662 14.278 9.91662 13.9845C9.91662 13.691 10.1472 13.4604 10.4407 13.4604H14.6332C14.9267 13.4604 15.1573 13.691 15.1573 13.9845C15.1573 14.278 14.9267 14.5086 14.6332 14.5086ZM19.8425 15.0326H17.7462C17.1697 15.0326 16.6981 14.561 16.6981 13.9845C16.6981 13.408 17.1697 12.9364 17.7462 12.9364H19.8425C20.419 12.9364 20.8906 13.408 20.8906 13.9845C20.8906 14.561 20.419 15.0326 19.8425 15.0326Z" fill="white"/>
</svg>
