<svg width="20" height="20" viewBox="0 0 20 20" fill="none" xmlns="http://www.w3.org/2000/svg">
<path d="M6.07511 13.7891L3.04623 2.17214L1 1" stroke="#232735" stroke-width="1.6" stroke-linecap="round" stroke-linejoin="round"/>
<path d="M3.9707 5.66528L6.09786 13.789H16.8839L18.9995 5.66528H3.9707Z" stroke="#232735" stroke-width="1.6" stroke-linecap="round" stroke-linejoin="round"/>
<path d="M7.43926 19C8.07774 19 8.59533 18.4804 8.59533 17.8395C8.59533 17.1985 8.07774 16.679 7.43926 16.679C6.80079 16.679 6.2832 17.1985 6.2832 17.8395C6.2832 18.4804 6.80079 19 7.43926 19Z" stroke="#232735" stroke-width="1.6" stroke-linecap="round" stroke-linejoin="round"/>
<path d="M15.532 19C16.1705 19 16.6881 18.4804 16.6881 17.8395C16.6881 17.1985 16.1705 16.679 15.532 16.679C14.8936 16.679 14.376 17.1985 14.376 17.8395C14.376 18.4804 14.8936 19 15.532 19Z" stroke="#232735" stroke-width="1.6" stroke-linecap="round" stroke-linejoin="round"/>
</svg>
