<svg width="25" height="24" viewBox="0 0 25 24" fill="none" xmlns="http://www.w3.org/2000/svg">
    <symbol id="cyclist">
        <path d="M18.1399 11.4802C15.6096 11.4802 13.6691 10.258 12.3718 7.83497C12.1573 7.43828 12.3074 6.95582 12.7041 6.74139C13.0901 6.52697 13.5833 6.67706 13.7977 7.07376C14.8055 8.96072 16.2315 9.87204 18.1506 9.87204C18.5902 9.87204 18.9547 10.2366 18.9547 10.6761C18.9547 11.1157 18.5902 11.4802 18.1399 11.4802Z" fill="white"/>
        <path d="M12.5114 19.3181C12.0611 19.3181 11.7073 18.9536 11.7073 18.514L11.718 14.0861L8.8447 11.7274C8.68388 11.5773 8.57667 11.3736 8.56595 11.1591C8.55523 10.934 8.63028 10.7195 8.78038 10.5587L9.16635 10.1406C9.31645 9.96905 9.53087 9.87256 9.75602 9.87256C9.98117 9.87256 10.1956 9.96905 10.3457 10.1299L13.1225 13.1533L13.1333 13.164C13.2726 13.3141 13.337 13.5071 13.337 13.7001L13.3262 18.5033C13.3155 18.9536 12.9617 19.3181 12.5114 19.3181Z" fill="white"/>
        <path d="M15.6307 6.68816C16.6492 6.68816 17.4748 5.86253 17.4748 4.84408C17.4748 3.82562 16.6492 3 15.6307 3C14.6122 3 13.7866 3.82562 13.7866 4.84408C13.7866 5.86253 14.6122 6.68816 15.6307 6.68816Z" fill="white"/>
        <path d="M6.05659 21.3441C3.54778 21.3441 1.5 19.2963 1.5 16.7875C1.5 14.2787 3.54778 12.231 6.05659 12.231C8.56539 12.231 10.6132 14.2787 10.6132 16.7875C10.6132 19.2963 8.56539 21.3441 6.05659 21.3441ZM6.05659 13.8392C4.42694 13.8392 3.10821 15.1579 3.10821 16.7875C3.10821 18.4172 4.42694 19.7359 6.05659 19.7359C7.68624 19.7359 9.00497 18.4065 9.00497 16.7875C9.00497 15.1686 7.68624 13.8392 6.05659 13.8392Z" fill="white"/>
        <path d="M18.9438 21.3441C16.435 21.3441 14.3872 19.2963 14.3872 16.7875C14.3872 14.2787 16.435 12.231 18.9438 12.231C21.4526 12.231 23.5004 14.2787 23.5004 16.7875C23.5004 19.2963 21.4633 21.3441 18.9438 21.3441ZM18.9438 13.8392C17.3141 13.8392 15.9954 15.1579 15.9954 16.7875C15.9954 18.4172 17.3141 19.7359 18.9438 19.7359C20.5734 19.7359 21.8922 18.4172 21.8922 16.7875C21.8922 15.1579 20.5734 13.8392 18.9438 13.8392Z" fill="white"/>
        <path d="M8.70536 11.5876L8.66247 11.5447C8.0728 10.955 8.0728 10.0008 8.66247 9.41111L11.3643 6.6986C11.9539 6.10893 12.9081 6.10893 13.4978 6.6986L13.5407 6.74149C14.1304 7.33117 14.1304 8.28537 13.5407 8.87504L10.8389 11.5876C10.2492 12.1772 9.29503 12.1772 8.70536 11.5876Z" fill="white"/>    
    </symbol>
</svg>
