<svg width="16" height="14" viewBox="0 0 16 14" fill="none" xmlns="http://www.w3.org/2000/svg">
    <symbol id="delivery-icon">
        <path d="M13 4H10V1.0001C10 0.800098 9.8 0.600098 9.6 0.600098H0.4C0.2 0.600098 0 0.800098 0 1.0001V10.6078C0 10.8078 0.2 11.0078 0.4 11.0078H1.8H2.1C2 11.2078 2 11.3078 2 11.5078C2 12.5078 2.8 13.3078 3.8 13.3078C4.8 13.3078 5.6 12.5078 5.6 11.5078C5.6 11.3078 5.6 11.1078 5.5 11.0078H9.4H10.3H10.5C10.4 11.2078 10.4 11.3078 10.4 11.5078C10.4 12.5078 11.2 13.3078 12.2 13.3078C13.2 13.3078 14 12.5078 14 11.5078C14 11.3078 14 11.1078 13.9 11.0078H14.1H15.6C15.8 11.0078 16 10.8078 16 10.6078V8L13 4Z" fill="#7FBF47"/>
    </symbol>
</svg>
