<svg width="28" height="29" viewBox="0 0 28 29" fill="none" xmlns="http://www.w3.org/2000/svg">
<path fill-rule="evenodd" clip-rule="evenodd" d="M0.759766 14.52V1.91998C0.759766 1.19998 1.35977 0.599976 1.95977 0.599976C2.55977 0.599976 2.79977 0.719975 3.15977 0.959975L26.3198 13.68C26.7998 13.92 27.0398 14.28 27.0398 14.64C27.0398 15 26.7998 15.36 26.3198 15.6L3.15977 28.32C2.91977 28.44 2.55977 28.68 1.95977 28.68C1.35977 28.68 0.759766 28.08 0.759766 27.36V14.52Z" fill="url(#paint0_linear)"/>
<path fill-rule="evenodd" clip-rule="evenodd" d="M15.7597 14.64L1.71973 0.599976C1.83973 0.599976 1.83972 0.599976 1.95972 0.599976C2.55972 0.599976 2.79972 0.719975 3.15972 0.959975L20.1997 10.32L15.7597 14.64Z" fill="url(#paint1_linear)"/>
<path fill-rule="evenodd" clip-rule="evenodd" d="M20.0798 18.84L15.7598 14.52L20.1998 10.08L26.3198 13.44C26.7998 13.68 27.0398 14.04 27.0398 14.4C27.0398 14.76 26.7998 15.12 26.3198 15.36L20.0798 18.84Z" fill="url(#paint2_linear)"/>
<path fill-rule="evenodd" clip-rule="evenodd" d="M1.83984 28.44L15.7599 14.52L20.0798 18.84L3.15985 28.08C2.79985 28.32 2.55984 28.44 1.83984 28.44C1.95984 28.44 1.95984 28.44 1.83984 28.44Z" fill="url(#paint3_linear)"/>
<defs>
<linearGradient id="paint0_linear" x1="8.52064" y1="-1.1117" x2="15.2385" y2="26.4774" gradientUnits="userSpaceOnUse">
<stop stop-color="#006884"/>
<stop offset="1" stop-color="#8AD1D0"/>
</linearGradient>
<linearGradient id="paint1_linear" x1="0.328567" y1="2.81254" x2="18.6358" y2="12.7095" gradientUnits="userSpaceOnUse">
<stop stop-color="#24BBB6"/>
<stop offset="1" stop-color="#DBE692"/>
</linearGradient>
<linearGradient id="paint2_linear" x1="21.393" y1="19.3441" x2="21.393" y2="9.80603" gradientUnits="userSpaceOnUse">
<stop stop-color="#FCC072"/>
<stop offset="1" stop-color="#F58A5B"/>
</linearGradient>
<linearGradient id="paint3_linear" x1="3.87348" y1="30.9229" x2="18.3355" y2="16.2047" gradientUnits="userSpaceOnUse">
<stop stop-color="#712B8F"/>
<stop offset="1" stop-color="#EA1D27"/>
</linearGradient>
</defs>
</svg>
