<svg width="36" height="36" viewBox="0 0 36 36" fill="none" xmlns="http://www.w3.org/2000/svg">
<circle cx="18" cy="18" r="18" fill="white"/>
<path fill-rule="evenodd" clip-rule="evenodd" d="M18 0C8.0589 0 0 8.0589 0 18C0 27.9411 8.0589 36 18 36C27.9411 36 36 27.9411 36 18C36 8.0589 27.9411 0 18 0ZM14.0425 8.45798C15.0665 8.4114 15.3937 8.4 18.0009 8.4H17.9979C20.6059 8.4 20.9319 8.4114 21.9559 8.45798C22.978 8.50478 23.6759 8.66663 24.288 8.904C24.9199 9.14902 25.454 9.477 25.9879 10.011C26.522 10.5446 26.85 11.0802 27.096 11.7116C27.332 12.3221 27.494 13.0196 27.542 14.0417C27.588 15.0657 27.6 15.3928 27.6 18.0001C27.6 20.6073 27.588 20.9337 27.542 21.9578C27.494 22.9793 27.332 23.6771 27.096 24.2878C26.85 24.919 26.522 25.4546 25.9879 25.9882C25.4545 26.5222 24.9198 26.851 24.2886 27.0962C23.6777 27.3336 22.9793 27.4954 21.9574 27.5422C20.9333 27.5888 20.6071 27.6002 17.9997 27.6002C15.3927 27.6002 15.0657 27.5888 14.0417 27.5422C13.0198 27.4954 12.3221 27.3336 11.7113 27.0962C11.0802 26.851 10.5446 26.5222 10.0112 25.9882C9.47738 25.4546 9.1494 24.919 8.904 24.2875C8.66677 23.6771 8.505 22.9795 8.45798 21.9575C8.41162 20.9335 8.4 20.6073 8.4 18.0001C8.4 15.3928 8.412 15.0655 8.45782 14.0414C8.5038 13.0199 8.6658 12.3221 8.90378 11.7114C9.14978 11.0802 9.47783 10.5446 10.0118 10.011C10.5455 9.47722 11.081 9.14917 11.7125 8.904C12.3229 8.66663 13.0205 8.50478 14.0425 8.45798Z" fill="url(#paint0_linear)"/>
<path fill-rule="evenodd" clip-rule="evenodd" d="M17.1398 10.1291C17.1398 10.1298 17.1403 10.1303 17.141 10.1303C17.3078 10.1301 17.4873 10.1302 17.681 10.1303L18.001 10.1303C20.5642 10.1303 20.868 10.1396 21.8802 10.1855C22.8162 10.2284 23.3242 10.3847 23.6626 10.5161C24.1106 10.6901 24.43 10.8982 24.7658 11.2342C25.1018 11.5702 25.3098 11.8902 25.4843 12.3382C25.6157 12.6762 25.7723 13.1842 25.8149 14.1202C25.8608 15.1322 25.8708 15.4362 25.8708 17.9982C25.8708 20.5603 25.8608 20.8643 25.8149 21.8763C25.772 22.8123 25.6157 23.3203 25.4843 23.6583C25.3103 24.1063 25.1018 24.4253 24.7658 24.7611C24.4298 25.0971 24.1108 25.3052 23.6626 25.4792C23.3246 25.6112 22.8162 25.7672 21.8802 25.8099C20.8682 25.856 20.5642 25.8659 18.001 25.8659C15.4376 25.8659 15.1337 25.856 14.1217 25.8099C13.1857 25.7667 12.6777 25.6103 12.3391 25.4789C11.8911 25.3049 11.5711 25.0969 11.2351 24.7609C10.8991 24.4249 10.6911 24.1057 10.5167 23.6575C10.3853 23.3195 10.2287 22.8115 10.1861 21.8755C10.1401 20.8635 10.1309 20.5595 10.1309 17.9958C10.1309 15.4322 10.1401 15.1298 10.1861 14.1178C10.2289 13.1818 10.3853 12.6738 10.5167 12.3354C10.6907 11.8874 10.8991 11.5674 11.2351 11.2314C11.5711 10.8954 11.8911 10.6874 12.3391 10.513C12.6775 10.381 13.1857 10.225 14.1217 10.1819C15.0071 10.142 15.3504 10.13 17.1385 10.1279C17.1392 10.1279 17.1398 10.1285 17.1398 10.1291ZM23.1254 11.7242C23.1254 11.7243 23.1253 11.7244 23.1252 11.7244C22.4893 11.7245 21.9734 12.2398 21.9734 12.876C21.9734 13.512 22.4894 14.028 23.1254 14.028C23.7614 14.028 24.2774 13.512 24.2774 12.876C24.2774 12.2401 23.7615 11.7241 23.1256 11.724C23.1255 11.724 23.1254 11.7241 23.1254 11.7242ZM13.0709 18.0005C13.0709 15.2779 15.2782 13.0705 18.0008 13.0704C20.7234 13.0704 22.9302 15.2778 22.9302 18.0005C22.9302 20.7231 20.7236 22.9295 18.001 22.9295C15.2783 22.9295 13.0709 20.7231 13.0709 18.0005Z" fill="url(#paint1_linear)"/>
<path d="M18.0008 14.7998C19.768 14.7998 21.2008 16.2325 21.2008 17.9998C21.2008 19.7671 19.768 21.1999 18.0008 21.1999C16.2334 21.1999 14.8008 19.7671 14.8008 17.9998C14.8008 16.2325 16.2334 14.7998 18.0008 14.7998Z" fill="url(#paint2_linear)"/>
<defs>
<linearGradient id="paint0_linear" x1="36" y1="0" x2="4.29153e-06" y2="36" gradientUnits="userSpaceOnUse">
<stop offset="0.066397" stop-color="#C938A7"/>
<stop offset="0.506785" stop-color="#FF5D3F"/>
<stop offset="0.931444" stop-color="#FFD453"/>
</linearGradient>
<linearGradient id="paint1_linear" x1="25.8708" y1="10.1279" x2="10.1328" y2="25.8679" gradientUnits="userSpaceOnUse">
<stop offset="0.066397" stop-color="#C938A7"/>
<stop offset="0.506785" stop-color="#FF5D3F"/>
<stop offset="0.931444" stop-color="#FFD453"/>
</linearGradient>
<linearGradient id="paint2_linear" x1="21.2008" y1="14.7998" x2="14.8008" y2="21.1999" gradientUnits="userSpaceOnUse">
<stop offset="0.066397" stop-color="#C938A7"/>
<stop offset="0.506785" stop-color="#FF5D3F"/>
<stop offset="0.931444" stop-color="#FFD453"/>
</linearGradient>
</defs>
</svg>
