<svg width="202" height="36" viewBox="0 0 202 36" fill="none" xmlns="http://www.w3.org/2000/svg">
<path d="M58.3961 27.904C58.3652 27.904 58.3652 27.8731 58.3652 27.8484L58.3343 27.8175L50.5371 9.25761C50.395 8.91162 50.568 8.47913 50.914 8.33703C51.26 8.16404 51.6925 8.33703 51.8346 8.68302L59.0263 25.8343L66.2488 8.68302C66.3662 8.33703 66.7925 8.16404 67.1385 8.33703C67.4845 8.47913 67.6575 8.91162 67.5092 9.25761L59.7182 27.6754C59.6873 27.9349 59.5452 28.1635 59.3166 28.25H59.2857C59.1993 28.2809 59.1128 28.3056 59.0263 28.3056C58.9398 28.3056 58.8224 28.3056 58.7668 28.2747C58.7359 28.2747 58.7359 28.2438 58.7359 28.2438C58.5691 28.1882 58.4517 28.077 58.3961 27.904Z" fill="#232735"/>
<path d="M72.9399 8.82504C72.9399 8.44815 73.255 8.13306 73.6319 8.13306C74.0335 8.13306 74.3486 8.44815 74.3486 8.82504L74.3671 27.6197C74.3671 27.9966 74.052 28.3117 73.6504 28.3117C73.2736 28.3117 72.9585 27.9966 72.9585 27.6197L72.9399 8.82504Z" fill="#232735"/>
<path d="M88.7505 27.904C88.7196 27.904 88.7196 27.8731 88.7196 27.8484L88.6887 27.8175L80.8977 9.25761C80.7556 8.91162 80.9286 8.47913 81.2746 8.33703C81.6206 8.16404 82.0531 8.33703 82.1952 8.68302L89.3868 25.8343L96.6094 8.68302C96.7268 8.33703 97.1531 8.16404 97.4991 8.33703C97.8451 8.47913 98.0181 8.91162 97.8698 9.25761L90.0726 27.6754C90.0418 27.9349 89.8996 28.1635 89.671 28.25H89.6402C89.5537 28.2809 89.4672 28.3056 89.3807 28.3056C89.2942 28.3056 89.1768 28.3056 89.1212 28.2747C89.0903 28.2747 89.0903 28.2438 89.0903 28.2438C88.9235 28.1882 88.8061 28.077 88.7505 27.904Z" fill="#232735"/>
<path d="M103.715 8.85592C103.715 8.47904 104.03 8.16394 104.407 8.16394H104.462H114.762C115.163 8.16394 115.454 8.47904 115.454 8.85592C115.454 9.25752 115.163 9.57261 114.762 9.57261H105.123V17.5427H113.557C113.928 17.5427 114.249 17.8578 114.249 18.2594C114.249 18.6363 113.934 18.9514 113.557 18.9514H105.123V26.8907H114.762C115.163 26.8907 115.454 27.2058 115.454 27.6135C115.454 27.9904 115.163 28.3055 114.762 28.3055H104.493H104.407H104.351C104.005 28.2746 103.721 27.9904 103.721 27.6135V8.85592H103.715Z" fill="#232735"/>
<path d="M122.244 11.1295V27.6197C122.244 27.9965 121.928 28.3116 121.552 28.3116C121.175 28.3116 120.86 27.9965 120.86 27.6197V9.14007C120.773 8.84968 120.86 8.56548 121.119 8.36159C121.434 8.1577 121.898 8.21949 122.095 8.53459L134.298 25.451V9.05975C134.298 8.68287 134.613 8.36777 134.99 8.36777C135.391 8.36777 135.706 8.68287 135.706 9.05975V27.6197C135.706 27.9965 135.391 28.3116 134.99 28.3116C134.761 28.3116 134.588 28.2251 134.446 28.0521C134.415 28.0213 134.359 27.9965 134.328 27.9348L122.244 11.1295Z" fill="#232735"/>
<path d="M148.168 9.57261H142.095C141.718 9.57261 141.403 9.25752 141.403 8.85592C141.403 8.47904 141.718 8.16394 142.095 8.16394H155.619C155.996 8.16394 156.311 8.47904 156.311 8.85592C156.311 9.25752 155.996 9.57261 155.619 9.57261H149.546V27.6135C149.546 27.9904 149.231 28.3055 148.854 28.3055C148.477 28.3055 148.162 27.9904 148.162 27.6135V9.57261H148.168Z" fill="#232735"/>
<path d="M161.637 8.85592C161.637 8.47904 161.952 8.16394 162.329 8.16394C162.731 8.16394 163.046 8.47904 163.046 8.85592V20.1624C163.046 23.8756 166.067 26.8659 169.749 26.8968C173.487 26.8659 176.508 23.8756 176.508 20.1624V8.85592C176.508 8.47904 176.823 8.16394 177.2 8.16394C177.602 8.16394 177.923 8.47904 177.923 8.85592V20.1624C177.923 24.6479 174.272 28.3055 169.749 28.3055C165.288 28.3055 161.637 24.6541 161.637 20.1624V8.85592Z" fill="#232735"/>
<path d="M201.834 8.59637C201.778 8.50987 201.716 8.45427 201.63 8.36777C201.315 8.16388 200.851 8.22567 200.654 8.54077L193.518 18.4633L186.351 8.53459C186.122 8.21949 185.69 8.1577 185.375 8.36159C185.344 8.39248 185.319 8.39248 185.319 8.4172C185.146 8.53459 185.029 8.7323 185.029 8.9609V27.6073C185.029 27.9842 185.344 28.2993 185.745 28.2993C186.122 28.2993 186.437 27.9842 186.437 27.6073V11.0739L192.881 19.9955C193.023 20.2241 193.227 20.3106 193.487 20.3106H193.542C193.746 20.3106 193.975 20.2241 194.117 19.9955L200.561 11.0492V27.6197C200.561 27.9965 200.851 28.3116 201.253 28.3116C201.63 28.3116 201.945 27.9965 201.945 27.6197V8.97325C201.951 8.85586 201.896 8.71376 201.834 8.59637Z" fill="#232735"/>
<mask id="mask0" mask-type="alpha" maskUnits="userSpaceOnUse" x="0" y="0" width="36" height="36">
<ellipse cx="18" cy="18" rx="18" ry="18" fill="#C4C4C4"/>
</mask>
<g mask="url(#mask0)">
<path d="M34.0861 34.6144C34.1771 34.3414 36.535 27.9046 36.535 27.9046L38.1878 13.3478L30.0906 25.1828L34.0861 34.6144Z" fill="#BDD753"/>
<path d="M26.4663 5.95581C26.5573 6.22875 30.0979 25.1829 30.0979 25.1829L38.1952 13.3479L33.3656 6.22875L26.4663 5.95581Z" fill="#8DC63F"/>
<path d="M30.0904 25.1831L16.6709 9.76195L11.6821 -2.39148L26.4664 5.95595L30.0904 25.1831Z" fill="#00529B"/>
<path d="M1.97754 5.04614L16.6708 9.76195L30.0904 25.1831L10.2264 17.1086L1.97754 5.04614Z" fill="#00AEEF"/>
<path d="M23.5627 30.8924L10.2266 17.1089L30.0906 25.1834L34.0861 34.615L23.5627 30.8924Z" fill="#008BBF"/>
<path d="M1.97754 5.04614L11.6821 -2.39148L16.6708 9.76195L1.97754 5.04614Z" fill="#8DC63F"/>
<path d="M1.79565 26.8817L10.2265 17.1089L23.5626 30.8924L1.79565 26.8817Z" fill="#DC4326"/>
<path d="M-11.9045 33.5L1.79555 26.8812L24.5633 37.2454L20.0219 41.8475L-11.9045 33.5Z" fill="#00AEEF"/>
<path d="M23.5626 30.8919L24.5634 37.2454L1.79565 26.8812L23.5626 30.8919Z" fill="#B61C21"/>
<path d="M34.0859 34.6146L24.5633 37.2454L23.5625 30.892L34.0859 34.6146Z" fill="#8DC63F"/>
<path d="M-9.36465 33.3408L-13.1707 28.534L1.79557 26.8812L-9.36465 33.3408Z" fill="#87BF40"/>
<path d="M-12.5338 12.9391C-12.2609 12.9391 1.79557 26.8818 1.79557 26.8818L-13.1707 28.5346L-12.5338 12.9391Z" fill="#005BAB"/>
<path d="M10.2265 17.109L1.79567 26.8818L-12.5337 12.9391L10.2265 17.109Z" fill="#FDB913"/>
<path d="M1.97763 5.04614L10.2265 17.1086L-12.5337 12.9387L1.97763 5.04614Z" fill="#FFE21E"/>
<path d="M11.6821 -2.39148L26.4664 5.95594L33.3581 6.2213L28.4604 0.330341L11.6821 -2.39148Z" fill="#003067"/>
</g>
</svg>
