<svg width="10" height="15" viewBox="0 0 10 15" fill="none" xmlns="http://www.w3.org/2000/svg">
    <symbol id="lock-icon">
        <path d="M9.63636 5H8.63636V3.63636C8.63636 1.63636 7 0 5 0C3 0 1.36364 1.63636 1.36364 3.63636V5H0.363636C0.181818 5 0 5.18182 0 5.36364V14.6364C0 14.8182 0.181818 15 0.363636 15H9.63636C9.81818 15 10 14.8182 10 14.6364V5.36364C10 5.18182 9.81818 5 9.63636 5ZM2.81818 3.63636C2.81818 2.45455 3.81818 1.45455 5 1.45455C6.18182 1.45455 7.18182 2.45455 7.18182 3.63636V5H2.81818V3.63636Z" fill="#7FBF47"/>
    </symbol>
</svg>
