<svg xmlns="http://www.w3.org/2000/svg">
    <symbol id="pedestrian"  viewBox="0 0 25 24">
        <path d="M14.2183 5.62697C15.2198 5.62697 16.0318 4.81504 16.0318 3.81348C16.0318 2.81192 15.2198 2 14.2183 2C13.2167 2 12.4048 2.81192 12.4048 3.81348C12.4048 4.81504 13.2167 5.62697 14.2183 5.62697Z" fill="white"/>
        <path d="M18.7931 10.779C16.7426 10.6759 15.0424 9.21278 14.6509 7.22413C14.5582 6.72955 14.1975 6.338 13.7132 6.21435L12.9301 6.01858C12.518 5.91554 12.0749 5.95675 11.6937 6.14222L7.93276 7.97632C7.66486 8.09996 7.5 8.36786 7.5 8.66668V12.3349C7.5 12.7573 7.85033 13.1076 8.27279 13.1076C8.69525 13.1076 9.04558 12.7573 9.04558 12.3349V9.34673C9.04558 9.23339 9.11771 9.12005 9.22075 9.06853L11.1064 8.14118L8.5716 21.0725C8.48917 21.4847 8.75707 21.8866 9.16923 21.9793C9.22075 21.9896 9.28257 21.9999 9.33409 21.9999C9.68442 21.9999 10.0038 21.7629 10.0863 21.4023L11.6937 14.4678C11.7246 14.3235 11.9101 14.2617 12.0234 14.3544L13.9296 15.9103V21.2271C13.9296 21.6496 14.28 21.9999 14.7024 21.9999C15.1249 21.9999 15.4752 21.6496 15.4752 21.2271V15.2406C15.4752 15.0448 15.4031 14.8593 15.2794 14.7254L13.6514 12.9222L14.2593 9.98557C15.3 11.3354 16.8971 12.2318 18.7106 12.3246C19.1022 12.3452 19.504 12.0154 19.5246 11.593C19.5555 11.1705 19.2258 10.7996 18.7931 10.779Z" fill="white"/>
    </symbol>
</svg>
