<svg xmlns="http://www.w3.org/2000/svg">
    <symbol id="prev-arrow" viewBox="0 0 12 10">
        <path d="M4.44156 0.549133L1.09091 3.89978L0.545454 4.44524L-2.04365e-07 4.99069L0.545454 5.53615L1.09091 6.0816L4.44156 9.43225C4.75325 9.74394 5.22078 9.74394 5.53247 9.43225C5.68831 9.2764 5.76623 9.12056 5.76623 8.88679C5.76623 8.65303 5.68831 8.49718 5.53247 8.34134L4.75325 7.56212L2.96104 5.76991L11.6883 5.76991C11.8442 5.76991 12 5.61407 12 5.45822L12 4.52316C12 4.36731 11.8442 4.21147 11.6883 4.21147L2.96104 4.21147L4.75325 2.41926L5.53247 1.64004C5.68831 1.4842 5.76623 1.25043 5.76623 1.09459C5.76623 0.938742 5.68831 0.704977 5.53247 0.549133C5.22078 0.237445 4.75325 0.237445 4.44156 0.549133Z" fill="inherit"/>
    </symbol>
</svg>
