<svg xmlns="http://www.w3.org/2000/svg">
    <symbol id="upload-file" viewBox="0 0 18 17">
        <path d="M16.5 0.5H4.83329C4.33329 0.5 3.99996 0.833333 3.99996 1.33333V6.33333H1.49996C0.999959 6.33333 0.666626 6.66667 0.666626 7.16667V13.8333C0.666626 15.25 1.74996 16.3333 3.16663 16.3333H4.83329H14.8333C16.25 16.3333 17.3333 15.25 17.3333 13.8333V1.33333C17.3333 0.833333 17 0.5 16.5 0.5ZM2.33329 13.8333V8H3.99996V14.6667H3.16663C2.66663 14.6667 2.33329 14.3333 2.33329 13.8333ZM15.6666 13.8333C15.6666 14.3333 15.3333 14.6667 14.8333 14.6667H5.66663V7.16667V2.16667H15.6666V13.8333ZM13.5833 6.08333H7.74996V4.41667H13.5833V6.08333ZM13.5833 9.41667H7.74996V7.75H13.5833V9.41667Z" fill="inherit"/>
    </symbol>
</svg>
