<svg width="52" height="50" viewBox="0 0 52 50" fill="none" xmlns="http://www.w3.org/2000/svg">
<path d="M41.5779 12.3111V19.9555C41.5779 24.0444 38.2001 27.4222 34.1112 27.4222C30.0223 27.4222 26.6445 24.0444 26.6445 19.9555V12.3111" stroke="#6AB339" stroke-width="2" stroke-miterlimit="10" stroke-linecap="round" stroke-linejoin="round"/>
<path d="M22.9111 12.4889C22.9111 6.08886 27.8889 1.11108 34.1111 1.11108C40.3334 1.11108 45.3111 6.08886 45.3111 12.3111V12.4889" stroke="#6AB339" stroke-width="2" stroke-miterlimit="10" stroke-linecap="round" stroke-linejoin="round"/>
<path d="M37.8446 26.5333V30.9778L34.1113 48.9333L30.3779 30.9778V26.5333" stroke="#6AB339" stroke-width="2" stroke-miterlimit="10" stroke-linecap="round" stroke-linejoin="round"/>
<path d="M37.8444 30.9778L46.5555 32.9333C49.0444 33.4667 51 35.7778 51 38.4445V48.7556H17.2222V38.4445C17.2222 35.7778 18.9999 33.4667 21.6666 32.9333L30.3777 30.9778" stroke="#6AB339" stroke-width="2" stroke-miterlimit="10" stroke-linecap="round" stroke-linejoin="round"/>
<path d="M35.8887 9.11108C36.9553 11.0666 39.0887 12.3111 41.5776 12.3111" stroke="#6AB339" stroke-width="2" stroke-miterlimit="10" stroke-linecap="round" stroke-linejoin="round"/>
<path d="M26.6445 12.3111C30.2001 12.3111 33.4001 11.0666 36.0667 9.11108" stroke="#6AB339" stroke-width="2" stroke-miterlimit="10" stroke-linecap="round" stroke-linejoin="round"/>
<path d="M13.6664 24.2222V27.7777L10.1108 24.2222" stroke="#6AB339" stroke-width="2" stroke-miterlimit="10" stroke-linecap="round" stroke-linejoin="round"/>
<path d="M10.1111 24.2222H2.99995C1.93328 24.2222 1.22217 23.5111 1.22217 22.4444V11.7778C1.22217 10.7111 1.93328 10 2.99995 10H17.2222C18.2888 10 18.9999 10.7111 18.9999 11.7778V22.4444C18.9999 23.5111 18.2888 24.2222 17.2222 24.2222H13.6666" stroke="#6AB339" stroke-width="2" stroke-miterlimit="10" stroke-linecap="round" stroke-linejoin="round"/>
<path d="M45.311 12.4889C45.311 16.2222 43.711 19.6 41.3999 21.9111" stroke="#6AB339" stroke-width="2" stroke-miterlimit="10" stroke-linecap="round" stroke-linejoin="round"/>
<path d="M26.8222 21.9111C24.3334 19.6 22.9111 16.2222 22.9111 12.4889" stroke="#6AB339" stroke-width="2" stroke-miterlimit="10" stroke-linecap="round" stroke-linejoin="round"/>
<path d="M43.3555 39.1555V44.4888" stroke="#6AB339" stroke-width="2" stroke-miterlimit="10" stroke-linejoin="round"/>
<path d="M46.0223 41.8222H40.689" stroke="#6AB339" stroke-width="2" stroke-miterlimit="10" stroke-linejoin="round"/>
</svg>
