<svg width="160" height="48" viewBox="0 0 160 48" fill="none" xmlns="http://www.w3.org/2000/svg">
<path d="M35.3998 23.76C35.3998 20.04 38.5198 18.24 38.6398 18.12C36.8398 15.6 34.1998 15.24 33.2398 15.12C30.9598 14.88 28.6798 16.44 27.5998 16.44C26.3998 16.44 24.5998 15.12 22.6798 15.12C20.1598 15.12 17.8798 16.56 16.5598 18.84C13.9198 23.4 15.8398 30.12 18.3598 33.84C19.6798 35.64 21.1198 37.68 23.0398 37.56C24.9598 37.44 25.6798 36.36 27.9598 36.36C30.2398 36.36 30.8398 37.56 32.8798 37.56C34.9198 37.56 36.2398 35.76 37.4398 33.96C38.8798 31.92 39.4798 29.88 39.4798 29.76C39.3598 29.64 35.3998 28.2 35.3998 23.76Z" fill="white"/>
<path d="M31.68 12.72C32.64 11.4 33.36 9.72002 33.24 7.92002C31.8 8.04002 29.88 8.88002 28.92 10.2C27.96 11.28 27.12 13.08 27.36 14.76C28.92 14.88 30.6 13.92 31.68 12.72Z" fill="white"/>
<path d="M62.7599 37.32H60.1199L58.6799 32.76H53.6399L52.3199 37.32H49.7999L54.8399 21.84H57.9599L62.7599 37.32ZM58.1999 30.84L56.8799 26.76C56.7599 26.4 56.5199 25.32 56.0399 23.88C55.9199 24.48 55.6799 25.56 55.3199 26.76L53.9999 30.84H58.1999Z" fill="white"/>
<path d="M75.5999 31.68C75.5999 33.6 75.1199 35.04 74.0399 36.24C73.0799 37.2 71.9999 37.68 70.5599 37.68C69.1199 37.68 68.0399 37.2 67.4399 36.12V42H64.9199V30C64.9199 28.8 64.9199 27.6 64.7999 26.28H66.9599L67.0799 28.08C67.9199 26.76 69.1199 26.04 70.7999 26.04C72.1199 26.04 73.1999 26.52 74.0399 27.6C75.1199 28.56 75.5999 29.88 75.5999 31.68ZM73.0799 31.68C73.0799 30.6 72.8399 29.64 72.3599 29.04C71.8799 28.32 71.1599 27.96 70.1999 27.96C69.5999 27.96 68.9999 28.2 68.5199 28.56C68.0399 28.92 67.6799 29.52 67.5599 30.12C67.4399 30.48 67.4399 30.72 67.4399 30.84V32.76C67.4399 33.6 67.6799 34.2 68.1599 34.8C68.6399 35.4 69.3599 35.64 70.0799 35.64C71.0399 35.64 71.7599 35.28 72.2399 34.56C72.8399 33.84 73.0799 32.88 73.0799 31.68Z" fill="white"/>
<path d="M88.4398 31.68C88.4398 33.6 87.9598 35.04 86.8798 36.24C85.9198 37.2 84.8398 37.68 83.3998 37.68C81.9598 37.68 80.8798 37.2 80.2798 36.12V42H77.7598V30C77.7598 28.8 77.7598 27.6 77.6398 26.28H79.7998L79.9198 28.08C80.7598 26.76 81.9598 26.04 83.6398 26.04C84.9598 26.04 86.0398 26.52 86.8798 27.6C87.9598 28.56 88.4398 29.88 88.4398 31.68ZM85.9198 31.68C85.9198 30.6 85.6798 29.64 85.1998 29.04C84.7198 28.32 83.9998 27.96 83.0398 27.96C82.4398 27.96 81.8398 28.2 81.3598 28.56C80.8798 28.92 80.5198 29.52 80.3998 30.12C80.2798 30.48 80.2798 30.72 80.2798 30.84V32.76C80.2798 33.6 80.5198 34.2 80.9998 34.8C81.4798 35.4 82.1998 35.64 82.9198 35.64C83.8798 35.64 84.5998 35.28 85.0798 34.56C85.6798 33.84 85.9198 32.88 85.9198 31.68Z" fill="white"/>
<path d="M102.84 33C102.84 34.32 102.36 35.4 101.52 36.24C100.56 37.2 99.1202 37.56 97.3202 37.56C95.6402 37.56 94.3202 37.2 93.3602 36.6L93.9602 34.56C95.0402 35.16 96.2402 35.52 97.5602 35.52C98.5202 35.52 99.2402 35.28 99.7202 34.92C100.2 34.44 100.44 33.96 100.44 33.24C100.44 32.64 100.2 32.04 99.8402 31.68C99.3602 31.2 98.6402 30.84 97.6802 30.48C94.9202 29.52 93.6002 27.96 93.6002 26.04C93.6002 24.72 94.0802 23.76 95.0402 22.92C96.0002 22.08 97.2002 21.72 98.8802 21.72C100.32 21.72 101.4 21.96 102.36 22.44L101.76 24.48C100.92 24 99.9602 23.76 98.7602 23.76C97.9202 23.76 97.2002 24 96.7202 24.36C96.3602 24.72 96.1202 25.2 96.1202 25.8C96.1202 26.4 96.3602 26.88 96.8402 27.36C97.2002 27.72 98.0402 28.08 99.1202 28.56C100.44 29.04 101.4 29.76 102.12 30.48C102.48 31.08 102.84 31.92 102.84 33Z" fill="white"/>
<path d="M111 28.08H108.24V33.48C108.24 34.8 108.72 35.52 109.68 35.52C110.16 35.52 110.52 35.52 110.76 35.4L110.88 37.32C110.4 37.56 109.8 37.56 108.96 37.56C108 37.56 107.16 37.32 106.68 36.72C106.08 36.12 105.84 35.16 105.84 33.72V28.08H104.16V26.16H105.84V24.12L108.24 23.4V26.16H111V28.08Z" fill="white"/>
<path d="M123.36 31.68C123.36 33.36 122.88 34.8 121.92 35.88C120.84 36.96 119.52 37.56 117.84 37.56C116.16 37.56 114.84 36.96 113.88 35.88C112.92 34.8 112.44 33.48 112.44 31.8C112.44 30.12 112.92 28.68 114 27.6C114.96 26.52 116.4 25.92 118.08 25.92C119.76 25.92 121.08 26.52 122.04 27.6C122.88 28.68 123.36 30 123.36 31.68ZM120.72 31.8C120.72 30.72 120.48 29.88 120 29.16C119.52 28.32 118.68 27.84 117.72 27.84C116.76 27.84 115.92 28.32 115.44 29.16C114.96 29.88 114.72 30.84 114.72 31.8C114.72 32.88 114.96 33.72 115.44 34.44C115.92 35.28 116.76 35.76 117.72 35.76C118.68 35.76 119.4 35.28 120 34.44C120.48 33.72 120.72 32.76 120.72 31.8Z" fill="white"/>
<path d="M131.4 28.32C131.16 28.32 130.92 28.2 130.56 28.2C129.72 28.2 129 28.56 128.52 29.16C128.16 29.76 127.92 30.48 127.92 31.32V37.2H125.4V29.52C125.4 28.2 125.4 27.12 125.28 26.04H127.44L127.56 28.2H127.68C127.92 27.48 128.4 26.88 128.88 26.4C129.48 26.04 130.08 25.8 130.68 25.8C130.92 25.8 131.16 25.8 131.28 25.8V28.32H131.4Z" fill="white"/>
<path d="M142.44 31.2C142.44 31.68 142.44 32.04 142.32 32.28H134.88C134.88 33.36 135.24 34.2 135.96 34.8C136.56 35.28 137.4 35.64 138.36 35.64C139.44 35.64 140.52 35.52 141.36 35.16L141.72 36.84C140.64 37.32 139.44 37.56 138 37.56C136.32 37.56 134.88 37.08 133.92 36C132.96 35.04 132.48 33.6 132.48 31.92C132.48 30.24 132.96 28.8 133.8 27.72C134.76 26.52 136.08 25.92 137.76 25.92C139.32 25.92 140.64 26.52 141.36 27.72C142.2 28.68 142.44 29.88 142.44 31.2ZM140.16 30.6C140.16 29.88 140.04 29.28 139.68 28.68C139.2 27.96 138.6 27.6 137.76 27.6C136.92 27.6 136.32 27.96 135.84 28.56C135.48 29.04 135.24 29.76 135.12 30.48H140.16V30.6Z" fill="white"/>
<path d="M57.4801 12.36C57.4801 13.68 57.1201 14.76 56.2801 15.48C55.5601 16.08 54.4801 16.44 53.0401 16.44C52.3201 16.44 51.7201 16.44 51.2401 16.32V8.88001C51.8401 8.76001 52.5601 8.76001 53.4001 8.76001C54.7201 8.76001 55.6801 9.00001 56.4001 9.60001C57.0001 10.2 57.4801 11.16 57.4801 12.36ZM56.1601 12.36C56.1601 11.52 55.9201 10.8 55.4401 10.32C54.9601 9.84001 54.2401 9.60001 53.4001 9.60001C53.0401 9.60001 52.6801 9.60001 52.4401 9.72001V15.36C52.5601 15.36 52.9201 15.36 53.2801 15.36C54.2401 15.36 54.9601 15.12 55.4401 14.64C55.9201 14.16 56.1601 13.32 56.1601 12.36Z" fill="white"/>
<path d="M64.1999 13.56C64.1999 14.4 63.9599 15.12 63.4799 15.6C62.9999 16.2 62.2799 16.44 61.4399 16.44C60.5999 16.44 59.9999 16.2 59.5199 15.6C59.0399 15.12 58.7999 14.4 58.7999 13.56C58.7999 12.72 59.0399 12 59.5199 11.52C59.9999 10.92 60.7199 10.68 61.5599 10.68C62.3999 10.68 62.9999 10.92 63.4799 11.52C63.9599 12 64.1999 12.72 64.1999 13.56ZM62.9999 13.56C62.9999 13.08 62.8799 12.6 62.6399 12.24C62.3999 11.76 62.0399 11.64 61.5599 11.64C61.0799 11.64 60.7199 11.88 60.4799 12.24C60.2399 12.6 60.1199 13.08 60.1199 13.56C60.1199 14.04 60.2399 14.52 60.4799 14.88C60.7199 15.36 61.0799 15.48 61.5599 15.48C62.0399 15.48 62.3999 15.24 62.6399 14.76C62.8799 14.52 62.9999 14.04 62.9999 13.56Z" fill="white"/>
<path d="M73.4402 10.8L71.7602 16.32H70.6802L69.9602 13.92C69.7202 13.32 69.6002 12.72 69.4802 12.12C69.3602 12.72 69.2402 13.32 69.0002 13.92L68.2802 16.32H67.2002L65.4002 10.8H66.6002L67.2002 13.44C67.3202 14.04 67.4402 14.64 67.5602 15.24C67.6802 14.76 67.8002 14.16 68.0402 13.44L68.7602 10.8H69.7202L70.4402 13.32C70.6802 13.92 70.8002 14.52 70.9202 15.12C71.0402 14.52 71.1602 13.92 71.2802 13.32L72.0002 10.8H73.4402Z" fill="white"/>
<path d="M79.68 16.32H78.48V13.2C78.48 12.24 78.12 11.76 77.4 11.76C77.04 11.76 76.8 11.88 76.56 12.12C76.32 12.36 76.2 12.72 76.2 13.08V16.32H75V12.36C75 11.88 75 11.4 75 10.8H76.08V11.64C76.2 11.4 76.44 11.16 76.68 10.92C77.04 10.68 77.4 10.56 77.76 10.56C78.24 10.56 78.72 10.68 79.08 11.04C79.56 11.4 79.68 12 79.68 12.84V16.32Z" fill="white"/>
<path d="M83.0399 16.32H81.8399V8.28001H83.0399V16.32Z" fill="white"/>
<path d="M90.2399 13.56C90.2399 14.4 89.9999 15.12 89.5199 15.6C89.0399 16.2 88.3199 16.44 87.4799 16.44C86.6399 16.44 86.0399 16.2 85.5599 15.6C85.0799 15.12 84.8399 14.4 84.8399 13.56C84.8399 12.72 85.0799 12 85.5599 11.52C86.0399 11.04 86.7599 10.68 87.5999 10.68C88.4399 10.68 89.0399 10.92 89.5199 11.52C89.9999 12 90.2399 12.72 90.2399 13.56ZM89.0399 13.56C89.0399 13.08 88.9199 12.6 88.6799 12.24C88.4399 11.76 88.0799 11.64 87.5999 11.64C87.1199 11.64 86.7599 11.88 86.5199 12.24C86.2799 12.6 86.1599 13.08 86.1599 13.56C86.1599 14.04 86.2799 14.52 86.5199 14.88C86.7599 15.36 87.1199 15.48 87.5999 15.48C88.0799 15.48 88.4399 15.24 88.6799 14.76C88.9199 14.52 89.0399 14.04 89.0399 13.56Z" fill="white"/>
<path d="M96.1199 16.32H95.0399L94.9199 15.72C94.5599 16.2 93.9598 16.44 93.3598 16.44C92.8798 16.44 92.3998 16.32 92.1598 15.96C91.9198 15.6 91.6798 15.24 91.6798 14.88C91.6798 14.16 91.9199 13.68 92.5199 13.32C93.1199 12.96 93.8399 12.84 94.9199 12.84V12.72C94.9199 12 94.5599 11.64 93.8399 11.64C93.2399 11.64 92.8798 11.76 92.3998 12L92.1598 11.16C92.6398 10.8 93.2398 10.68 94.0798 10.68C95.5198 10.68 96.2399 11.4 96.2399 12.96V15C96.1199 15.6 96.1199 15.96 96.1199 16.32ZM94.9199 14.4V13.56C93.5999 13.56 92.8798 13.92 92.8798 14.64C92.8798 14.88 92.9999 15.12 93.1199 15.24C93.2399 15.36 93.4799 15.48 93.7199 15.48C93.9599 15.48 94.1999 15.36 94.4399 15.24C94.6799 15.12 94.7999 14.88 94.9199 14.64C94.9199 14.64 94.9199 14.52 94.9199 14.4Z" fill="white"/>
<path d="M103.08 16.32H102V15.48C101.64 16.2 101.04 16.44 100.2 16.44C99.48 16.44 99 16.2 98.52 15.72C98.04 15.24 97.92 14.52 97.92 13.68C97.92 12.84 98.16 12.12 98.64 11.52C99.12 11.04 99.72 10.8 100.32 10.8C101.04 10.8 101.52 11.04 101.88 11.52V8.40001H103.08V14.88C103.08 15.36 103.08 15.84 103.08 16.32ZM101.88 14.04V13.08C101.88 12.96 101.88 12.84 101.88 12.72C101.76 12.48 101.64 12.24 101.4 12C101.16 11.76 100.92 11.76 100.56 11.76C100.08 11.76 99.72 12 99.48 12.36C99.24 12.72 99.12 13.2 99.12 13.8C99.12 14.4 99.24 14.76 99.48 15.12C99.72 15.48 100.08 15.72 100.56 15.72C100.92 15.72 101.28 15.6 101.52 15.24C101.76 14.76 101.88 14.4 101.88 14.04Z" fill="white"/>
<path d="M113.52 13.56C113.52 14.4 113.28 15.12 112.8 15.6C112.32 16.2 111.6 16.44 110.76 16.44C109.92 16.44 109.32 16.2 108.84 15.6C108.36 15.12 108.12 14.4 108.12 13.56C108.12 12.72 108.36 12 108.84 11.52C109.32 10.92 110.04 10.68 110.88 10.68C111.72 10.68 112.32 10.92 112.8 11.52C113.28 12 113.52 12.72 113.52 13.56ZM112.2 13.56C112.2 13.08 112.08 12.6 111.84 12.24C111.6 11.76 111.24 11.64 110.76 11.64C110.28 11.64 109.92 11.88 109.68 12.24C109.44 12.6 109.32 13.08 109.32 13.56C109.32 14.04 109.44 14.52 109.68 14.88C109.92 15.36 110.28 15.48 110.76 15.48C111.24 15.48 111.6 15.24 111.84 14.76C112.08 14.52 112.2 14.04 112.2 13.56Z" fill="white"/>
<path d="M120.12 16.32H118.92V13.2C118.92 12.24 118.56 11.76 117.84 11.76C117.48 11.76 117.24 11.88 117 12.12C116.76 12.36 116.64 12.72 116.64 13.08V16.32H115.44V12.36C115.44 11.88 115.44 11.4 115.44 10.8H116.52V11.64C116.64 11.4 116.88 11.16 117.12 10.92C117.48 10.68 117.84 10.56 118.2 10.56C118.68 10.56 119.16 10.68 119.52 11.04C120 11.4 120.12 12 120.12 12.84V16.32Z" fill="white"/>
<path d="M128.28 11.76H126.96V14.4C126.96 15.12 127.2 15.36 127.68 15.36C127.92 15.36 128.04 15.36 128.28 15.36V16.32C128.04 16.44 127.68 16.44 127.32 16.44C126.84 16.44 126.48 16.32 126.24 15.96C126 15.72 125.88 15.12 125.88 14.52V11.76H125.04V10.8H125.88V9.83999L127.08 9.47999V10.8H128.4V11.76H128.28Z" fill="white"/>
<path d="M134.76 16.32H133.56V13.2C133.56 12.24 133.2 11.76 132.48 11.76C131.88 11.76 131.52 12 131.28 12.6C131.28 12.72 131.28 12.84 131.28 13.08V16.32H130.08V8.28001H131.28V11.64C131.64 11.04 132.24 10.68 132.96 10.68C133.44 10.68 133.92 10.8 134.16 11.16C134.52 11.52 134.76 12.24 134.76 12.96V16.32Z" fill="white"/>
<path d="M141.36 13.32C141.36 13.56 141.36 13.68 141.36 13.92H137.76C137.76 14.52 138 14.88 138.24 15.12C138.6 15.36 138.96 15.48 139.44 15.48C140.04 15.48 140.52 15.36 140.88 15.24L141.12 16.08C140.64 16.32 140.04 16.44 139.32 16.44C138.48 16.44 137.76 16.2 137.28 15.72C136.8 15.24 136.56 14.52 136.56 13.68C136.56 12.84 136.8 12.12 137.28 11.64C137.76 11.04 138.36 10.8 139.2 10.8C140.04 10.8 140.64 11.04 141 11.64C141.24 12 141.36 12.6 141.36 13.32ZM140.28 12.96C140.28 12.6 140.16 12.24 140.04 12C139.8 11.64 139.56 11.52 139.08 11.52C138.72 11.52 138.36 11.64 138.12 12C137.88 12.24 137.76 12.6 137.76 12.96H140.28Z" fill="white"/>
</svg>
