<svg width="25" height="31" viewBox="0 0 25 31" fill="none" xmlns="http://www.w3.org/2000/svg">
<path d="M20.4 16.76C20.4 13.04 23.52 11.24 23.64 11.12C21.84 8.60004 19.2 8.24004 18.24 8.12004C15.96 7.88004 13.68 9.44004 12.6 9.44004C11.4 9.44004 9.6 8.12004 7.68 8.12004C5.16 8.12004 2.88001 9.56004 1.56001 11.84C-1.07999 16.4 0.840007 23.12 3.36001 26.84C4.68001 28.64 6.12001 30.68 8.04001 30.56C9.96001 30.44 10.68 29.36 12.96 29.36C15.24 29.36 15.84 30.56 17.88 30.56C19.92 30.56 21.24 28.76 22.44 26.96C23.88 24.92 24.48 22.88 24.48 22.76C24.36 22.64 20.4 21.2 20.4 16.76Z" fill="white"/>
<path d="M16.6798 5.72001C17.6398 4.40001 18.3598 2.72001 18.2398 0.920013C16.7998 1.04001 14.8798 1.88001 13.9198 3.20001C12.9598 4.28001 12.1198 6.08001 12.3598 7.76001C13.9198 7.88001 15.5998 6.92001 16.6798 5.72001Z" fill="white"/>
</svg>
