<svg width="21" height="19" viewBox="0 0 21 19" fill="none" xmlns="http://www.w3.org/2000/svg">
<path d="M19.5 3H5.9C5.8 3 5.7 2.9 5.7 2.9L4.9 0.7C4.8 0.3 4.4 0 4 0H0.4L0 2H3.1C3.2 2 3.3 2.1 3.3 2.1L6 10L5 13.8C4.9 14.1 5 14.4 5.2 14.7C5.4 14.9 5.7 15 6 15H16.3C16.4 15 16.5 14.9 16.5 14.9L17 13.2C17 13.1 17 13.1 16.9 13.1H7.4C7.3 13.1 7.3 13 7.3 13L7.7 11.3C7.7 11.2 7.8 11.1 7.9 11.1H17C17.4 11.1 17.8 10.8 17.9 10.4L20.1 3.9C20.2 3.4 20 3 19.5 3ZM16.1 9H7.9C7.8 9 7.7 8.9 7.7 8.9L6.4 5.1C6.4 5 6.4 5 6.5 5H17.4C17.5 5 17.5 5.1 17.5 5.1L16.3 8.8C16.3 8.9 16.2 9 16.1 9ZM7.5 19C6.7 19 6 18.3 6 17.5C6 16.7 6.7 16 7.5 16C8.3 16 9 16.7 9 17.5C9 18.3 8.3 19 7.5 19ZM13.5 19C12.7 19 12 18.3 12 17.5C12 16.7 12.7 16 13.5 16C14.3 16 15 16.7 15 17.5C15 18.3 14.3 19 13.5 19Z" fill="#232735"/>
</svg>
