<svg xmlns="http://www.w3.org/2000/svg">
    <symbol id="cross" viewBox="0 0 12 12">
        <path d="M10.979 0.979004L10.3123 0.312337C10.1457 0.145671 9.89567 0.145671 9.81234 0.229004L5.64567 4.39567L1.479 0.229004C1.31234 0.145671 1.06234 0.145671 0.979004 0.229004L0.229004 0.979004C0.145671 1.06234 0.145671 1.31234 0.229004 1.39567L4.39567 5.56234L0.229004 9.729C0.145671 9.89567 0.145671 10.1457 0.229004 10.229L0.979004 10.979C1.14567 11.1457 1.31234 11.1457 1.479 10.979L5.64567 6.81234L9.81234 10.979C9.979 11.1457 10.1457 11.1457 10.3123 10.979L10.979 10.3123C11.1457 10.1457 11.1457 9.979 10.979 9.81234L6.81234 5.64567L10.979 1.479C11.0623 1.31234 11.0623 1.06234 10.979 0.979004Z" fill="inherit"/>
    </symbol>  
</svg>
