<svg width="40" height="40" viewBox="0 0 40 40" fill="none" xmlns="http://www.w3.org/2000/svg">
<path d="M40 0H8C3.58172 0 0 3.58172 0 8V40C18.9313 33.8931 33.8931 18.9313 40 0Z" fill="#E71730"/>
<path d="M22.1883 11.0742C21.5893 9.44461 20.0169 8.3335 18.2947 8.3335C16.7222 8.3335 15.599 9.14831 15 9.96313C14.3261 9.14831 13.2778 8.3335 11.7053 8.3335C9.98314 8.3335 8.4107 9.44461 7.81167 11.0742C5.78995 16.852 14.2512 21.3705 14.6256 21.5928C14.7754 21.6668 14.8502 21.6668 15 21.6668C15.1498 21.6668 15.2246 21.6668 15.3744 21.5928C15.7488 21.3705 24.2101 16.852 22.1883 11.0742Z" fill="white"/>
</svg>
