<svg xmlns="http://www.w3.org/2000/svg">
    <symbol id="filter" viewBox="0 0 18 17">
        <path d="M13.8 1.52695C13.4 0.610778 12.5 0 11.5 0C10.1 0 9 1.11976 9 2.54491C9 3.97006 10.1 5.08982 11.5 5.08982C12.5 5.08982 13.4 4.47904 13.8 3.56287H18V1.52695H13.8ZM11.5 3.66467C10.9 3.66467 10.4 3.15569 10.4 2.54491C10.4 1.93413 10.9 1.42515 11.5 1.42515C12.1 1.42515 12.6 1.93413 12.6 2.54491C12.6 3.15569 12.1 3.66467 11.5 3.66467ZM4.5 5.80239C3.5 5.80239 2.6 6.41317 2.2 7.32934H0V9.36527H2.2C2.6 10.2814 3.5 10.8922 4.5 10.8922C5.9 10.8922 7 9.77245 7 8.3473C7 6.92215 5.9 5.80239 4.5 5.80239ZM4.5 9.46707C3.9 9.46707 3.4 8.95808 3.4 8.3473C3.4 7.73653 3.9 7.22754 4.5 7.22754C5.1 7.22754 5.6 7.73653 5.6 8.3473C5.6 8.95808 5.1 9.46707 4.5 9.46707ZM9.5 11.9102C8.1 11.9102 7 13.0299 7 14.4551C7 15.8802 8.1 17 9.5 17C10.5 17 11.4 16.3892 11.8 15.4731H18V13.4371H11.8C11.4 12.521 10.5 11.9102 9.5 11.9102ZM9.5 15.5748C8.9 15.5748 8.4 15.0659 8.4 14.4551C8.4 13.8443 8.9 13.3353 9.5 13.3353C10.1 13.3353 10.6 13.8443 10.6 14.4551C10.6 15.0659 10.1 15.5748 9.5 15.5748ZM9 7.32934H18V9.36527H9V7.32934ZM0 13.4371H5V15.4731H0V13.4371ZM7 3.56287H0V1.52695H7V3.56287Z" fill="black"/>
    </symbol>
</svg>
