<svg width="555" height="264" viewBox="0 0 555 264" fill="none" xmlns="http://www.w3.org/2000/svg">
<g opacity="0.5">
<path d="M416.185 0H485.549V183.861C485.549 203.015 470.021 218.543 450.867 218.543C431.712 218.543 416.185 203.015 416.185 183.861V0Z" fill="#479AE0"/>
<path d="M346.821 0.547485H416.185V135.428C416.185 154.582 400.657 170.11 381.503 170.11C362.349 170.11 346.821 154.582 346.821 135.428V0.547485Z" fill="#1A67BD"/>
<path d="M208.092 79.3842C208.092 60.2298 223.62 44.7021 242.774 44.7021C261.929 44.7021 277.456 60.2298 277.456 79.3842V228.563C277.456 247.717 261.929 263.245 242.774 263.245C223.62 263.245 208.092 247.717 208.092 228.563V79.3842Z" fill="#277BD0"/>
<path d="M69.3643 0H138.728V124.172C100.42 124.172 69.3643 93.1168 69.3643 54.808V0Z" fill="#1F72CC"/>
<path d="M416.185 0H485.549V114.325C485.549 133.479 470.021 149.007 450.867 149.007C431.712 149.007 416.185 133.479 416.185 114.325V0Z" fill="#277BD0"/>
<path d="M208.092 0H277.456V124.172C239.148 124.172 208.092 93.1168 208.092 54.808V0Z" fill="#1F72CC"/>
<rect x="277.457" y="44.7021" width="69.3642" height="153.974" rx="34.6821" fill="#5DB2EE"/>
<path d="M138.729 0H208.093V154.06C208.093 173.214 192.565 188.742 173.411 188.742C154.256 188.742 138.729 173.214 138.729 154.06V0Z" fill="#1A67BD"/>
<path d="M484.971 0H554.335V62.2928C554.335 81.4472 538.807 96.9749 519.653 96.9749C500.498 96.9749 484.971 81.4473 484.971 62.2929V0Z" fill="#3F9DEB"/>
<path d="M0 0H69.3642V14.9868C69.3642 34.1412 53.8365 49.6689 34.6821 49.6689C15.5277 49.6689 0 34.1412 0 14.9868V0Z" fill="#1E82D9"/>
<rect x="346.821" y="46.1921" width="69.3642" height="198.676" rx="34.6821" fill="#1E82D9"/>
<path d="M277.457 0H346.821V54.808C346.821 93.1168 315.766 124.172 277.457 124.172V0Z" fill="#1E82D9"/>
</g>
</svg>
