<svg width="959" height="519" viewBox="0 0 959 519" fill="none" xmlns="http://www.w3.org/2000/svg">
<path d="M720 0H840V318.079C840 351.216 813.137 378.079 780 378.079V378.079C746.863 378.079 720 351.217 720 318.079V0Z" fill="#479AE0"/>
<path d="M600 0.947021H720V234.29C720 267.427 693.137 294.29 660 294.29V294.29C626.863 294.29 600 267.427 600 234.29V0.947021Z" fill="#1A67BD"/>
<path d="M360 137.335C360 104.197 386.863 77.3345 420 77.3345V77.3345C453.137 77.3345 480 104.197 480 137.334V395.414C480 428.551 453.137 455.414 420 455.414V455.414C386.863 455.414 360 428.551 360 395.414V137.335Z" fill="#277BD0"/>
<path d="M120 0H240V214.818V214.818C173.726 214.818 120 161.092 120 94.8179V0Z" fill="#1F72CC"/>
<path d="M720 0H840V197.781C840 230.919 813.137 257.781 780 257.781V257.781C746.863 257.781 720 230.919 720 197.781V0Z" fill="#277BD0"/>
<path d="M360 0H480V214.818V214.818C413.726 214.818 360 161.092 360 94.8179V0Z" fill="#1F72CC"/>
<rect x="480" y="77.3345" width="120" height="266.374" rx="60" fill="#5DB2EE"/>
<path d="M240 0H360V266.523C360 299.66 333.137 326.523 300 326.523V326.523C266.863 326.523 240 299.66 240 266.523V0Z" fill="#1A67BD"/>
<path d="M839 0H959V107.767C959 140.904 932.137 167.767 899 167.767V167.767C865.863 167.767 839 140.904 839 107.767V0Z" fill="#3F9DEB"/>
<path d="M0 0H120V25.9272C120 59.0642 93.1371 85.9272 60 85.9272V85.9272C26.8629 85.9272 0 59.0642 0 25.9271V0Z" fill="#1E82D9"/>
<rect x="600" y="79.9122" width="120" height="343.709" rx="60" fill="#1E82D9"/>
<path d="M480 0H600V94.8179C600 161.092 546.274 214.818 480 214.818V214.818V0Z" fill="#1E82D9"/>
</svg>
