<svg width="160" height="48" viewBox="0 0 160 48" fill="none" xmlns="http://www.w3.org/2000/svg">
<path fill-rule="evenodd" clip-rule="evenodd" d="M14.7599 23.52V10.92C14.7599 10.2 15.3599 9.59999 15.9599 9.59999C16.5599 9.59999 16.7999 9.71999 17.1599 9.95999L40.3199 22.68C40.7999 22.92 41.0399 23.28 41.0399 23.64C41.0399 24 40.7999 24.36 40.3199 24.6L17.1599 37.32C16.9199 37.44 16.5599 37.68 15.9599 37.68C15.3599 37.68 14.7599 37.08 14.7599 36.36V23.52Z" fill="url(#paint0_linear)"/>
<path fill-rule="evenodd" clip-rule="evenodd" d="M29.7599 23.64L15.7199 9.59999C15.8399 9.59999 15.8399 9.59999 15.9599 9.59999C16.5599 9.59999 16.7999 9.71999 17.1599 9.95999L34.1999 19.32L29.7599 23.64Z" fill="url(#paint1_linear)"/>
<path fill-rule="evenodd" clip-rule="evenodd" d="M34.0799 27.84L29.7599 23.52L34.1999 19.08L40.3199 22.44C40.7999 22.68 41.0399 23.04 41.0399 23.4C41.0399 23.76 40.7999 24.12 40.3199 24.36L34.0799 27.84Z" fill="url(#paint2_linear)"/>
<path fill-rule="evenodd" clip-rule="evenodd" d="M15.8399 37.44L29.7599 23.52L34.0799 27.84L17.1599 37.08C16.7999 37.32 16.5599 37.44 15.8399 37.44C15.9599 37.44 15.9599 37.44 15.8399 37.44Z" fill="url(#paint3_linear)"/>
<path fill-rule="evenodd" clip-rule="evenodd" d="M88.3199 40.68C87.7199 40.2 87.2399 39.36 86.9999 38.88L88.9199 38.04C89.0399 38.28 89.2799 38.64 89.5199 39C89.9999 39.48 90.7199 39.96 91.4399 39.96C92.1599 39.96 92.9999 39.6 93.4799 39C93.8399 38.4 94.0799 37.8 94.0799 36.96V36.24C92.6399 38.04 89.6399 37.8 87.9599 35.88C86.1599 33.96 86.1599 30.72 87.9599 28.8C89.7599 27 92.3999 26.76 93.9599 28.44V27.6H95.9999V36.6C95.9999 38.88 95.1599 40.2 94.0799 41.04C93.3599 41.64 92.2799 41.88 91.3199 41.88C90.2399 41.76 89.1599 41.4 88.3199 40.68ZM138.6 41.16L140.64 36.36L137.04 28.08H139.08L141.6 33.96L144.12 28.08H146.16L140.64 41.16H138.6ZM128.88 36.6C128.28 36 128.04 35.16 128.04 34.32C128.04 33.6 128.28 32.88 128.76 32.4C129.6 31.56 130.8 31.2 132.12 31.2C132.96 31.2 133.68 31.32 134.28 31.68C134.28 30.24 133.08 29.64 132.12 29.64C131.28 29.64 130.44 30.12 130.08 30.96L128.28 30.24C128.64 29.4 129.6 27.84 132 27.84C133.2 27.84 134.4 28.2 135.12 29.04C135.84 29.88 136.08 30.84 136.08 32.16V37.2H134.04V36.36C133.8 36.72 133.32 36.96 132.96 37.2C132.48 37.44 131.88 37.56 131.28 37.56C130.56 37.44 129.48 37.2 128.88 36.6ZM64.9199 32.28C64.9199 29.88 66.7199 27.24 69.9599 27.24C73.0799 27.24 74.9999 29.88 74.9999 32.28C74.9999 34.68 73.1999 37.32 69.9599 37.32C66.7199 37.32 64.9199 34.68 64.9199 32.28ZM75.7199 32.28C75.7199 29.88 77.5199 27.24 80.7599 27.24C83.8799 27.24 85.7999 29.88 85.7999 32.28C85.7999 34.68 83.9999 37.32 80.7599 37.32C77.6399 37.32 75.7199 34.68 75.7199 32.28ZM51.3599 34.92C48.3599 31.92 48.4799 27 51.4799 23.88C53.0399 22.32 54.9599 21.6 56.9999 21.6C58.9199 21.6 60.8399 22.32 62.2799 23.76L60.8399 25.32C58.6799 23.16 55.1999 23.28 53.1599 25.44C50.9999 27.72 50.9999 31.2 53.1599 33.48C55.3199 35.76 58.9199 35.88 61.0799 33.6C61.7999 32.88 62.0399 31.92 62.1599 30.96H57.1199V28.8H64.1999C64.3199 29.28 64.3199 29.88 64.3199 30.48C64.3199 32.28 63.5999 34.08 62.3999 35.28C61.0799 36.6 59.1599 37.32 57.2399 37.32C55.0799 37.2 52.9199 36.48 51.3599 34.92ZM102.12 35.76C100.32 33.84 100.32 30.6 102.12 28.56C103.92 26.64 106.92 26.64 108.6 28.56C109.2 29.16 109.56 30 109.92 30.84L103.32 33.6C103.68 34.44 104.52 35.16 105.72 35.16C106.8 35.16 107.52 34.8 108.24 33.72L110.04 34.92C109.8 35.16 109.56 35.4 109.44 35.64C107.4 37.68 103.92 37.68 102.12 35.76ZM114.6 37.2V23.88H118.92C121.44 23.88 123.48 25.68 123.48 27.84C123.48 30 121.68 31.8 119.4 31.8H116.76V37.08H114.6V37.2ZM124.68 37.2V23.88H126.72V37.2H124.68ZM97.5599 36.96V22.08H99.7199V36.96H97.5599ZM134.16 33.24C133.68 32.88 132.96 32.76 132.24 32.76C130.8 32.76 129.96 33.48 129.96 34.32C129.96 35.16 130.8 35.64 131.64 35.64C132.84 35.64 134.16 34.68 134.16 33.24ZM72.7199 32.28C72.7199 30.84 71.7599 29.28 69.9599 29.28C68.1599 29.28 67.1999 30.84 67.1999 32.28C67.1999 33.72 68.1599 35.28 69.9599 35.28C71.6399 35.28 72.7199 33.72 72.7199 32.28ZM83.5199 32.28C83.5199 30.84 82.5599 29.28 80.7599 29.28C78.9599 29.28 77.9999 30.84 77.9999 32.28C77.9999 33.72 78.9599 35.28 80.7599 35.28C82.5599 35.28 83.5199 33.72 83.5199 32.28ZM94.1999 33.12C94.1999 33 94.1999 32.88 94.3199 32.76C94.3199 32.64 94.3199 32.4 94.3199 32.28C94.3199 32.16 94.3199 31.92 94.3199 31.8V31.68C94.3199 31.56 94.1999 31.32 94.1999 31.2C93.8399 30 92.7599 29.16 91.6799 29.16C90.2399 29.16 89.0399 30.6 89.0399 32.16C89.0399 33.84 90.2399 35.16 91.7999 35.16C92.7599 35.28 93.7199 34.44 94.1999 33.12ZM102.96 32.04L107.4 30.12C106.92 29.28 106.2 29.04 105.6 29.04C103.8 29.16 102.72 31.08 102.96 32.04ZM121.32 27.96C121.32 26.76 120.36 25.92 119.04 25.92H116.64V30.12H119.16C120.36 30.12 121.32 29.16 121.32 27.96Z" fill="white"/>
<path fill-rule="evenodd" clip-rule="evenodd" d="M140.16 38.76H140.04V38.64H140.16H140.04V38.76H140.16Z" fill="white"/>
<path fill-rule="evenodd" clip-rule="evenodd" d="M140.4 38.76C140.4 38.64 140.4 38.64 140.4 38.76C140.28 38.64 140.28 38.64 140.4 38.76C140.28 38.76 140.28 38.76 140.4 38.76ZM140.4 38.64C140.4 38.76 140.4 38.76 140.4 38.64C140.4 38.76 140.28 38.76 140.4 38.64C140.4 38.64 140.28 38.64 140.4 38.64Z" fill="white"/>
<path fill-rule="evenodd" clip-rule="evenodd" d="M140.52 38.64H140.4H140.52V38.76V38.64Z" fill="white"/>
<path d="M49.6798 12.12C49.6798 9.96001 51.2399 8.64001 53.1599 8.64001C54.4799 8.64001 55.3199 9.24001 55.9199 10.08L54.9599 10.68C54.5999 10.2 53.9999 9.84001 53.1599 9.84001C51.8399 9.84001 50.8798 10.8 50.8798 12.24C50.8798 13.68 51.8399 14.64 53.1599 14.64C53.8799 14.64 54.4799 14.28 54.7199 14.04V12.96H52.7999V11.88H56.0399V14.4C55.4399 15.12 54.4798 15.6 53.2798 15.6C51.2398 15.6 49.6798 14.16 49.6798 12.12Z" fill="white"/>
<path d="M57.4802 15.48V8.76001H62.0402V9.84001H58.5602V11.52H61.9202V12.6H58.5602V14.52H62.0402V15.6L57.4802 15.48Z" fill="white"/>
<path d="M65.4002 15.48V9.84001H63.3602V8.76001H68.6402V9.84001H66.6002V15.48H65.4002Z" fill="white"/>
<path d="M72.7199 15.48V8.76001H73.9199V15.48H72.7199Z" fill="white"/>
<path d="M77.1601 15.48V9.84001H75.1201V8.76001H80.4V9.84001H78.3601V15.48H77.1601Z" fill="white"/>
<path d="M84.2401 12.12C84.2401 10.08 85.6801 8.64001 87.7201 8.64001C89.7601 8.64001 91.2001 10.08 91.2001 12.12C91.2001 14.16 89.7601 15.6 87.7201 15.6C85.6801 15.6 84.2401 14.04 84.2401 12.12ZM89.8801 12.12C89.8801 10.68 89.0401 9.72001 87.6001 9.72001C86.2801 9.72001 85.3201 10.8 85.3201 12.12C85.3201 13.56 86.1601 14.52 87.6001 14.52C89.0401 14.52 89.8801 13.44 89.8801 12.12Z" fill="white"/>
<path d="M97.1998 15.48L93.7198 10.68V15.48H92.5198V8.76001H93.7198L97.1998 13.44V8.76001H98.3998V15.48H97.1998Z" fill="white"/>
<defs>
<linearGradient id="paint0_linear" x1="22.5208" y1="7.88831" x2="29.2386" y2="35.4774" gradientUnits="userSpaceOnUse">
<stop stop-color="#006884"/>
<stop offset="1" stop-color="#8AD1D0"/>
</linearGradient>
<linearGradient id="paint1_linear" x1="14.3287" y1="11.8125" x2="32.6359" y2="21.7095" gradientUnits="userSpaceOnUse">
<stop stop-color="#24BBB6"/>
<stop offset="1" stop-color="#DBE692"/>
</linearGradient>
<linearGradient id="paint2_linear" x1="35.3932" y1="28.3441" x2="35.3932" y2="18.806" gradientUnits="userSpaceOnUse">
<stop stop-color="#FCC072"/>
<stop offset="1" stop-color="#F58A5B"/>
</linearGradient>
<linearGradient id="paint3_linear" x1="17.8736" y1="39.9229" x2="32.3356" y2="25.2047" gradientUnits="userSpaceOnUse">
<stop stop-color="#712B8F"/>
<stop offset="1" stop-color="#EA1D27"/>
</linearGradient>
</defs>
</svg>
