<svg width="161" height="44" viewBox="0 0 161 44" fill="none" xmlns="http://www.w3.org/2000/svg">
<path d="M156.522 0.488525H120.491C118.659 0.488525 117.194 2.25952 117.194 4.45799V26.2595C117.194 28.458 118.659 30.229 120.491 30.229H124.43C124.4 30.5038 124.4 30.7481 124.369 30.9313C124.033 34.0763 123.148 36.3664 123.148 36.3664C123.148 36.3664 125.682 35.7862 128.125 33.1908C129.01 32.2442 129.499 31.1145 129.774 30.229H156.522C158.354 30.229 159.82 28.458 159.82 26.2595V4.45799C159.82 2.25952 158.354 0.488525 156.522 0.488525Z" fill="white"/>
<path d="M123.142 36.8248C123.02 36.8248 122.898 36.7637 122.806 36.6721C122.684 36.5499 122.654 36.3667 122.715 36.2141C122.715 36.1835 123.57 33.9545 123.906 30.9011C123.906 30.84 123.906 30.779 123.936 30.6874H120.486C118.409 30.6874 116.73 28.7026 116.73 26.2599V4.45836C116.73 2.01562 118.409 0.0308838 120.486 0.0308838H156.516C158.593 0.0308838 160.272 2.01562 160.272 4.45836V26.2599C160.272 28.7026 158.593 30.6874 156.516 30.6874H130.104C129.799 31.5118 129.31 32.5805 128.455 33.4965C125.951 36.153 123.356 36.7942 123.264 36.7942C123.203 36.8248 123.173 36.8248 123.142 36.8248ZM120.486 0.946914C118.928 0.946914 117.646 2.50416 117.646 4.45836V26.2599C117.646 28.1835 118.928 29.7713 120.486 29.7713H124.425C124.547 29.7713 124.669 29.8324 124.761 29.924C124.852 30.0156 124.883 30.1377 124.883 30.2599C124.852 30.5347 124.852 30.779 124.822 30.9927C124.608 33.008 124.18 34.6568 123.875 35.6339C124.791 35.2675 126.318 34.4431 127.783 32.8858C128.638 31.9698 129.096 30.8706 129.341 30.1072C129.402 29.924 129.585 29.7713 129.768 29.7713H156.516C158.073 29.7713 159.356 28.2141 159.356 26.2599V4.45836C159.356 2.5347 158.073 0.946914 156.516 0.946914H120.486Z" fill="#575966"/>
<path d="M156.853 0.244385H120.822C118.99 0.244385 117.524 2.01538 117.524 4.21385V26.0154C117.524 28.2138 118.99 29.9848 120.822 29.9848H124.761C124.731 30.2596 124.731 30.5039 124.7 30.6871C124.364 33.8322 123.479 36.1222 123.479 36.1222C123.479 36.1222 126.013 35.5421 128.456 32.9467C129.341 32.0001 129.83 30.8703 130.105 29.9848H156.853C158.685 29.9848 160.15 28.2138 160.15 26.0154V4.18332C160.15 2.01538 158.654 0.244385 156.853 0.244385Z" fill="white"/>
<path d="M123.454 36.3359C123.393 36.3359 123.331 36.3053 123.27 36.2443C123.209 36.1832 123.209 36.0916 123.24 36C123.24 35.9695 124.125 33.7099 124.461 30.6259C124.461 30.5038 124.492 30.3511 124.492 30.1679H120.797C118.843 30.1679 117.255 28.2748 117.255 25.9847V4.1832C117.255 1.86259 118.843 0 120.797 0H156.828C158.782 0 160.37 1.89313 160.37 4.1832V25.9847C160.37 28.3053 158.782 30.1679 156.828 30.1679H130.232C129.957 30.9924 129.469 32.0916 128.583 33.0382C126.141 35.6641 123.606 36.2443 123.484 36.2748C123.484 36.3359 123.484 36.3359 123.454 36.3359ZM120.797 0.458015C119.118 0.458015 117.713 2.1374 117.713 4.1832V25.9847C117.713 28.0305 119.087 29.7099 120.797 29.7099H124.736C124.797 29.7099 124.858 29.7404 124.889 29.771C124.919 29.832 124.95 29.8931 124.95 29.9542C124.919 30.229 124.919 30.4733 124.889 30.6565C124.644 33.0076 124.064 34.9007 123.82 35.6946C124.614 35.4198 126.476 34.5954 128.247 32.7023C129.133 31.7557 129.622 30.6259 129.866 29.832C129.896 29.7404 129.988 29.6794 130.08 29.6794H156.828C158.507 29.6794 159.912 28 159.912 25.9542V4.1832C159.912 2.1374 158.538 0.458015 156.828 0.458015H120.797Z" fill="#575966"/>
<path d="M134.168 14.6261L138.412 10.3818L142.656 6.13751C142.656 6.13751 147.725 1.98484 151.939 6.22912C156.183 10.4734 151.939 15.42 151.939 15.42L147.695 19.6642L143.45 23.9085C143.45 23.9085 138.382 28.0612 134.168 23.8169C129.924 19.6032 134.168 14.6261 134.168 14.6261Z" fill="#90CC3D"/>
<path d="M133.924 24.2747L133.832 24.1831C132.519 22.8702 131.786 21.0992 131.786 19.2366C131.786 17.374 132.519 15.6335 133.832 14.29L142.29 5.83199C145.007 3.11443 149.435 3.11443 152.153 5.83199L152.244 5.92359C154.962 8.64115 154.962 13.0686 152.244 15.7862L143.786 24.2442C142.412 25.6183 140.641 26.29 138.84 26.29C137.069 26.3205 135.298 25.6183 133.924 24.2747ZM151.511 6.50375C149.16 4.1526 145.313 4.1526 142.962 6.50375L134.504 14.9618C133.374 16.0915 132.733 17.6183 132.733 19.2366C132.733 20.8549 133.374 22.3511 134.504 23.5114L134.595 23.603C136.946 25.9541 140.794 25.9541 143.145 23.603L151.603 15.145C153.954 12.7938 153.954 8.9465 151.603 6.59535L151.511 6.50375Z" fill="#575966"/>
<path d="M134.715 6.41234C134.715 6.41234 129.738 2.16807 125.524 6.41234C121.31 10.6566 125.432 15.6948 125.432 15.6948L129.676 19.9391L138.959 10.6261L134.715 6.41234Z" fill="#D0FF94"/>
<path d="M133.892 24.1831C133.892 24.1831 138.87 28.3969 143.236 24.0305C147.602 19.6641 143.48 14.5648 143.48 14.5648L139.236 10.3206L129.618 19.9389L133.892 24.1831Z" fill="#50C433"/>
<path d="M133.924 24.2682L125.466 15.8102C122.748 13.0926 122.748 8.66514 125.466 5.94758L125.558 5.85598C126.87 4.543 128.641 3.81018 130.504 3.81018C132.367 3.81018 134.107 4.543 135.451 5.85598L143.909 14.314C145.222 15.627 145.954 17.398 145.954 19.2606C145.954 21.1231 145.222 22.8636 143.909 24.2071L143.817 24.2987C142.443 25.6728 140.672 26.3445 138.87 26.3445C137.069 26.3445 135.298 25.6117 133.924 24.2682ZM126.229 6.4972L126.138 6.58881C123.787 8.93995 123.787 12.7873 126.138 15.1384L134.596 23.5964C136.947 25.9476 140.794 25.9476 143.145 23.5964L143.237 23.5048C144.367 22.3751 145.008 20.8483 145.008 19.23C145.008 17.6117 144.367 16.1155 143.237 14.9552L134.779 6.4972C133.649 5.36743 132.122 4.72621 130.504 4.72621C128.886 4.72621 127.359 5.36743 126.229 6.4972Z" fill="#575966"/>
<path d="M138.385 10.0719L129.079 19.3776L129.748 20.0469L139.054 10.7412L138.385 10.0719Z" fill="#575966"/>
<path d="M15.542 26.6871L9.09924 35.6336C8.94656 35.8779 8.73282 35.939 8.51908 35.939H8.45801C8.21374 35.939 8 35.8474 7.84733 35.6336L1.40458 26.7176V43.2672C1.40458 43.6336 1.09924 43.9695 0.70229 43.9695C0.305343 43.9695 0 43.6642 0 43.2978V24.6107C0 24.3665 0.122137 24.1833 0.274809 24.0611C0.274809 24.0306 0.305343 24.0306 0.335878 24C0.641221 23.7863 1.09924 23.8474 1.31298 24.1833L8.48855 34.1069L15.6336 24.1833C15.8473 23.8779 16.3053 23.8168 16.6107 24C16.7023 24.0917 16.7634 24.1527 16.8244 24.2443C16.8855 24.3665 16.9466 24.4886 16.9466 24.6107V43.2672C16.9466 43.6336 16.6412 43.9695 16.2443 43.9695C15.8473 43.9695 15.542 43.6642 15.542 43.2672V26.6871Z" fill="white"/>
<path d="M22.9907 36.9464C22.9907 33.038 26.0442 29.8624 29.861 29.8624C33.4945 29.8624 36.3648 32.7327 36.6701 36.4273V36.4578V36.5494C36.6701 36.9159 36.3648 37.1907 35.9678 37.1907H24.3648C24.5174 40.2746 26.9297 42.5952 29.8304 42.5952C31.693 42.5952 33.4335 41.6181 34.38 40.0304C34.5938 39.6945 35.0213 39.6334 35.2961 39.7861C35.6014 40.0304 35.7235 40.4273 35.5403 40.7632C34.319 42.6868 32.2426 43.9693 29.8304 43.9693C26.0442 43.9693 22.9907 40.7937 22.9907 36.9464ZM24.4564 35.8166H35.1434C34.6854 33.1601 32.4258 31.2365 29.8304 31.2365C27.1739 31.2365 24.9755 33.1296 24.4564 35.8166Z" fill="white"/>
<path d="M52.8258 41.2519C51.5739 42.9313 49.6197 44 47.4212 44C43.6044 44 40.5815 40.8244 40.5815 36.9771C40.5815 33.0687 43.6044 29.8931 47.4212 29.8931C49.6502 29.8931 51.6044 30.9924 52.8258 32.6717V24.4885C52.8258 24.1221 53.1312 23.7863 53.5586 23.7863C53.9251 23.7863 54.2609 24.0916 54.2609 24.4885V36.6412V36.916V43.2672C54.2609 43.6336 53.9556 43.9694 53.5586 43.9694C53.1617 43.9694 52.8258 43.6641 52.8258 43.2672V41.2519ZM52.8258 37.1908V36.7328C52.7037 33.7099 50.322 31.2977 47.4212 31.2977C44.4594 31.2977 42.0167 33.832 42.0167 36.9771C42.0167 40.0916 44.4594 42.5954 47.4212 42.5954C50.322 42.5649 52.7037 40.1832 52.8258 37.1908Z" fill="white"/>
<path d="M60.5823 25.9541C60.5823 25.5877 60.8876 25.2518 61.2846 25.2518C61.6815 25.2518 62.0174 25.5572 62.0174 25.9541V26.6259C62.0174 27.0228 61.712 27.3892 61.2846 27.3892C60.9182 27.3892 60.5823 27.0534 60.5823 26.6259V25.9541ZM60.5823 30.5648C60.5823 30.1679 60.8876 29.8625 61.2846 29.8625C61.6815 29.8625 62.0174 30.1373 62.0174 30.5648V43.2976C62.0174 43.664 61.712 43.9999 61.2846 43.9999C60.9182 43.9999 60.5823 43.6946 60.5823 43.2976V30.5648Z" fill="white"/>
<path d="M67.6333 36.8853C67.6333 32.9769 70.8699 29.8624 74.9005 29.8624C76.5799 29.8624 78.1677 30.4426 79.389 31.4197C79.6638 31.6334 79.7249 32.0609 79.4806 32.3662C79.2363 32.6105 78.8394 32.7021 78.5341 32.4884C77.5264 31.6945 76.244 31.2059 74.9005 31.2059C71.6028 31.2059 69.0379 33.7708 69.0379 36.8853C69.0379 40.0609 71.6333 42.5952 74.9005 42.5952C76.244 42.5952 77.5264 42.1372 78.5341 41.3433C78.8394 41.0991 79.2669 41.1907 79.4806 41.4655C79.7249 41.7708 79.6944 42.2288 79.328 42.4731C78.1371 43.3891 76.5493 43.9693 74.9005 43.9693C70.8394 43.9693 67.6333 40.8548 67.6333 36.8853Z" fill="#99D158"/>
<path d="M85.2859 24.4885C85.2859 24.1221 85.5912 23.7863 85.9882 23.7863C86.3851 23.7863 86.721 24.0916 86.721 24.4885V43.2672C86.721 43.6336 86.4157 43.9695 85.9882 43.9695C85.6218 43.9695 85.2859 43.6641 85.2859 43.2672V24.4885Z" fill="#99D158"/>
<path d="M92.2749 25.9541C92.2749 25.5877 92.5802 25.2518 92.9772 25.2518C93.3741 25.2518 93.71 25.5572 93.71 25.9541V26.6259C93.71 27.0228 93.4047 27.3892 92.9772 27.3892C92.6108 27.3892 92.2749 27.0534 92.2749 26.6259V25.9541ZM92.2749 30.5648C92.2749 30.1679 92.5802 29.8625 92.9772 29.8625C93.3741 29.8625 93.71 30.1373 93.71 30.5648V43.2976C93.71 43.664 93.4047 43.9999 92.9772 43.9999C92.6108 43.9999 92.2749 43.6946 92.2749 43.2976V30.5648Z" fill="#99D158"/>
<path d="M99.7886 42.8701L104.094 36.977L99.7886 31.0533C99.5749 30.7174 99.636 30.29 99.9413 30.0762C100.216 29.8625 100.705 29.9235 100.888 30.2594L104.979 35.8167L109.041 30.2289C109.285 29.9235 109.712 29.8625 109.957 30.0457C110.292 30.29 110.354 30.6869 110.17 31.0228L105.834 36.9464L110.17 42.8396C110.384 43.1449 110.323 43.5724 109.957 43.7861C109.865 43.8777 109.712 43.9388 109.621 43.9388C109.376 43.9388 109.163 43.8472 109.041 43.664L104.979 38.1067L100.888 43.664C100.766 43.8777 100.552 43.9388 100.338 43.9388C100.216 43.9388 100.094 43.8777 99.9413 43.7861C99.6665 43.6029 99.6054 43.206 99.7886 42.8701Z" fill="#99D158"/>
</svg>
