<svg width="43" height="36" viewBox="0 0 43 36" fill="none" xmlns="http://www.w3.org/2000/svg">
<path d="M38.9005 0.477539H3.67698C1.88595 0.477539 0.453125 2.20886 0.453125 4.3581V25.6713C0.453125 27.8205 1.88595 29.5519 3.67698 29.5519H7.52769C7.49784 29.8205 7.49783 30.0593 7.46798 30.2384C7.13963 33.313 6.27396 35.5518 6.27396 35.5518C6.27396 35.5518 8.75156 34.9847 11.1396 32.4474C12.0053 31.522 12.4829 30.4175 12.7515 29.5519H38.9005C40.6915 29.5519 42.1244 27.8205 42.1244 25.6713V4.3581C42.1244 2.20886 40.6915 0.477539 38.9005 0.477539Z" fill="white"/>
<path d="M6.26859 36C6.14919 36 6.02979 35.9403 5.94024 35.8507C5.82084 35.7313 5.79098 35.5522 5.85069 35.403C5.85069 35.3731 6.6865 33.194 7.01485 30.209C7.01485 30.1493 7.01485 30.0896 7.0447 30H3.67161C1.64178 30 0 28.0598 0 25.6717V4.35852C0 1.97049 1.64178 0.0302124 3.67161 0.0302124H38.8951C40.9249 0.0302124 42.5667 1.97049 42.5667 4.35852V25.6717C42.5667 28.0598 40.9249 30 38.8951 30H13.0745C12.776 30.806 12.2984 31.8508 11.4626 32.7463C9.01484 35.3433 6.47755 35.9701 6.388 35.9701C6.3283 36 6.29844 36 6.26859 36ZM3.67161 0.925725C2.14924 0.925725 0.895513 2.4481 0.895513 4.35852V25.6717C0.895513 27.5523 2.14924 29.1045 3.67161 29.1045H7.52231C7.64171 29.1045 7.76112 29.1642 7.85067 29.2538C7.94022 29.3433 7.97007 29.4627 7.97007 29.5821C7.94022 29.8508 7.94021 30.0896 7.91036 30.2985C7.70141 32.2687 7.28351 33.8806 6.98501 34.8358C7.88052 34.4776 9.37304 33.6716 10.8059 32.1493C11.6417 31.2538 12.0894 30.1791 12.3282 29.4329C12.3879 29.2538 12.567 29.1045 12.7461 29.1045H38.8951C40.4175 29.1045 41.6712 27.5822 41.6712 25.6717V4.35852C41.6712 2.47795 40.4175 0.925725 38.8951 0.925725H3.67161Z" fill="#575966"/>
<path d="M39.2237 0.238892H4.00022C2.20919 0.238892 0.776367 1.97022 0.776367 4.11945V25.4327C0.776367 27.5819 2.20919 29.3132 4.00022 29.3132H7.85093C7.82108 29.5819 7.82107 29.8207 7.79122 29.9998C7.46287 33.0744 6.5972 35.3132 6.5972 35.3132C6.5972 35.3132 9.0748 34.746 11.4628 32.2087C12.3285 31.2834 12.8061 30.1789 13.0748 29.3132H39.2237C41.0148 29.3132 42.4476 27.5819 42.4476 25.4327V4.0896C42.4476 1.97022 40.9849 0.238892 39.2237 0.238892Z" fill="white"/>
<path d="M6.57282 35.522C6.51311 35.522 6.45342 35.4922 6.39372 35.4325C6.33402 35.3728 6.33402 35.2832 6.36387 35.1937C6.36387 35.1638 7.22953 32.9549 7.55789 29.94C7.55789 29.8206 7.58774 29.6713 7.58774 29.4922H3.97583C2.06541 29.4922 0.513184 27.6415 0.513184 25.4027V4.08951C0.513184 1.82088 2.06541 0 3.97583 0H39.1993C41.1098 0 42.662 1.85073 42.662 4.08951V25.4027C42.662 27.6714 41.1098 29.4922 39.1993 29.4922H13.1996C12.931 30.2982 12.4534 31.3728 11.5877 32.2982C9.19966 34.8653 6.72207 35.4325 6.60267 35.4623C6.60267 35.522 6.60267 35.522 6.57282 35.522ZM3.97583 0.447756C2.33406 0.447756 0.96094 2.08953 0.96094 4.08951V25.4027C0.96094 27.4027 2.30421 29.0445 3.97583 29.0445H7.82654C7.88624 29.0445 7.94594 29.0743 7.97579 29.1042C8.00564 29.1639 8.03549 29.2236 8.03549 29.2833C8.00564 29.5519 8.00564 29.7907 7.97579 29.9698C7.73699 32.2683 7.16983 34.119 6.93102 34.8952C7.70714 34.6265 9.52801 33.8205 11.2593 31.9698C12.125 31.0444 12.6026 29.94 12.8414 29.1639C12.8713 29.0743 12.9608 29.0146 13.0504 29.0146H39.1993C40.8411 29.0146 42.2142 27.3728 42.2142 25.3729V4.08951C42.2142 2.08953 40.8709 0.447756 39.1993 0.447756H3.97583Z" fill="#575966"/>
<path d="M17.0477 14.2986L21.1969 10.1494L25.3461 6.00016C25.3461 6.00016 30.3013 1.9405 34.4207 6.08971C38.5699 10.2389 34.4207 15.0747 34.4207 15.0747L30.2715 19.2239L26.1222 23.3731C26.1222 23.3731 21.1671 27.4328 17.0477 23.2836C12.8985 19.1642 17.0477 14.2986 17.0477 14.2986Z" fill="#90CC3D"/>
<path d="M16.8088 23.7311L16.7192 23.6416C15.4356 22.358 14.7192 20.6267 14.7192 18.8058C14.7192 16.9849 15.4356 15.2834 16.7192 13.97L24.9878 5.70144C27.6445 3.04475 31.9728 3.04475 34.6295 5.70144L34.719 5.79099C37.3757 8.44768 37.3757 12.776 34.719 15.4327L26.4505 23.7013C25.1072 25.0445 23.3759 25.7012 21.6147 25.7012C19.8834 25.7311 18.152 25.0445 16.8088 23.7311ZM34.0026 6.35815C31.7041 4.05967 27.943 4.05967 25.6445 6.35815L17.3759 14.6267C16.2715 15.7312 15.6446 17.2237 15.6446 18.8058C15.6446 20.3879 16.2715 21.8505 17.3759 22.9848L17.4655 23.0744C19.764 25.3729 23.5251 25.3729 25.8236 23.0744L34.0922 14.8058C36.3906 12.5073 36.3906 8.74619 34.0922 6.4477L34.0026 6.35815Z" fill="#575966"/>
<path d="M17.582 6.26872C17.582 6.26872 12.7164 2.1195 8.59701 6.26872C4.47765 10.4179 8.50746 15.3432 8.50746 15.3432L12.6567 19.4925L21.7312 10.3881L17.582 6.26872Z" fill="#D0FF94"/>
<path d="M16.7782 23.6416C16.7782 23.6416 21.6438 27.7609 25.9124 23.4923C30.181 19.2237 26.1512 14.2387 26.1512 14.2387L22.002 10.0895L12.5991 19.4924L16.7782 23.6416Z" fill="#50C433"/>
<path d="M16.8089 23.7246L8.54037 15.4561C5.88368 12.7994 5.88368 8.47107 8.54037 5.81438L8.62992 5.72483C9.91349 4.44126 11.6448 3.72485 13.4657 3.72485C15.2866 3.72485 16.988 4.44126 18.3015 5.72483L26.57 13.9934C27.8536 15.277 28.57 17.0083 28.57 18.8292C28.57 20.65 27.8536 22.3515 26.57 23.6649L26.4805 23.7545C25.1372 25.0978 23.4059 25.7545 21.6447 25.7545C19.8835 25.7545 18.1522 25.0381 16.8089 23.7246ZM9.28663 6.35169L9.19708 6.44124C6.8986 8.73973 6.8986 12.5009 9.19708 14.7994L17.4656 23.0679C19.7641 25.3664 23.5253 25.3664 25.8238 23.0679L25.9133 22.9784C27.0178 21.8739 27.6446 20.3814 27.6446 18.7993C27.6446 17.2172 27.0178 15.7546 25.9133 14.6203L17.6447 6.35169C16.5403 5.24723 15.0478 4.62037 13.4657 4.62037C11.8836 4.62037 10.3911 5.24723 9.28663 6.35169Z" fill="#575966"/>
<path d="M21.17 9.84638L12.0728 18.9436L12.7271 19.5979L21.8243 10.5007L21.17 9.84638Z" fill="#575966"/>
</svg>
