<svg width="80" height="80" viewBox="0 0 80 80" fill="none" xmlns="http://www.w3.org/2000/svg">
<g clip-path="url(#clip0)">
<path d="M24.2515 57.9086C24.2515 57.9086 29.6453 53.4275 36.4498 54.5893C44.3332 55.834 45.5779 56.166 47.7354 56.5809C51.8015 57.4107 51.3037 62.8875 46.5737 62.1407C43.5033 61.6428 36.6158 60.398 36.6158 60.398" stroke="#6AB339" stroke-width="1.5" stroke-miterlimit="10" stroke-linecap="round" stroke-linejoin="round"/>
<path d="M28.1514 68.4474C38.1092 69.2772 40.5157 69.2772 44.0839 67.9495C50.8055 65.3771 57.5271 62.8876 61.1783 61.3939C64.8295 59.9002 63.6677 54.5064 58.8548 56.249C53.295 58.3236 50.4736 59.2364 50.4736 59.2364" stroke="#6AB339" stroke-width="1.5" stroke-miterlimit="10" stroke-linecap="round" stroke-linejoin="round"/>
<path d="M23.2631 55.3957L13.5938 58.9148L19.0995 74.0426L28.7688 70.5235L23.2631 55.3957Z" stroke="#6AB339" stroke-width="2" stroke-miterlimit="10" stroke-linejoin="round"/>
<path d="M21.2642 55.5022V15.5878H61.0956V55.9171" stroke="#6AB339" stroke-width="2" stroke-miterlimit="10" stroke-linejoin="round"/>
<path d="M31.2217 21.3965V15.0069C31.2217 9.77899 35.7027 5.62988 41.1795 5.62988C46.6564 5.62988 51.1374 9.86197 51.1374 15.0069V21.3965" stroke="#6AB339" stroke-width="2" stroke-miterlimit="10" stroke-linejoin="round"/>
<path d="M39.1052 41.1462L34.3752 36.4992C33.0475 35.1715 33.0475 32.931 34.3752 31.5203L34.5411 31.3543C35.8689 30.0266 38.1094 30.0266 39.5201 31.3543L44.2501 36.0843C45.5778 37.412 45.5778 39.6525 44.2501 41.0632L44.0841 41.2292C42.6734 42.5569 40.4329 42.5569 39.1052 41.1462Z" stroke="#6AB339" stroke-miterlimit="10"/>
<path d="M44.0011 41.1462L48.7311 36.4162C50.0588 35.0885 50.0588 32.848 48.7311 31.4373L48.5651 31.3543C47.2374 30.0266 44.9969 30.0266 43.5862 31.3543L36.4497 38.4908L39.1051 41.1462C40.4329 42.5569 42.6734 42.5569 44.0011 41.1462Z" stroke="#6AB339" stroke-miterlimit="10"/>
<path d="M36.2837 45.3783C36.0348 46.3741 34.2092 48.8636 32.1346 48.8636C33.0474 47.0379 32.9644 45.3783 32.9644 45.3783H31.0558C29.6451 45.3783 28.4834 44.2166 28.4834 42.8059V29.0308C28.4834 27.6201 29.6451 26.4584 31.0558 26.4584H51.6354C53.0461 26.4584 54.2079 27.6201 54.2079 29.0308V42.8059C54.2079 44.2166 53.0461 45.3783 51.6354 45.3783H36.2837Z" stroke="#6AB339" stroke-miterlimit="10"/>
</g>
<defs>
<clipPath id="clip0">
<rect width="51.2" height="70.0369" fill="white" transform="translate(12.7998 4.80005)"/>
</clipPath>
</defs>
</svg>
