<svg width="80" height="80" viewBox="0 0 80 80" fill="none" xmlns="http://www.w3.org/2000/svg">
<path d="M60.7203 30.24V37.52C60.7203 42.4 56.5603 46.4 51.5203 46.4C46.4003 46.4 42.3203 42.4 42.3203 37.52V30.24C52.4803 30.24 54.2403 23.76 54.4003 23.76C54.5603 23.76 56.2403 30.24 60.7203 30.24Z" stroke="#6AB339" stroke-width="1.5" stroke-miterlimit="10" stroke-linecap="round"/>
<path d="M56.4801 45.04V53.92C56.4801 57.92 54.2401 60.32 51.5201 60.32C48.8001 60.32 46.5601 57.92 46.5601 53.92V45.04" stroke="#6AB339" stroke-width="1.5" stroke-miterlimit="10" stroke-linecap="round" stroke-linejoin="round"/>
<path d="M67.4402 55.84V27.6C67.4402 19.44 60.2402 12.8 51.3602 12.8C44.5602 12.8 38.8002 16.64 36.4002 22.16L36.1599 22.8" stroke="#6AB339" stroke-width="2" stroke-miterlimit="10" stroke-linecap="round" stroke-linejoin="round"/>
<path d="M35.6797 55.52V41.2" stroke="#6AB339" stroke-width="2" stroke-miterlimit="10" stroke-linecap="round" stroke-linejoin="round"/>
<path d="M56.4797 51.52C66.3997 53.2 73.8397 59.52 73.8397 67.12V68.4" stroke="#6AB339" stroke-width="2" stroke-miterlimit="10" stroke-linejoin="round"/>
<path d="M28.9602 68.32V67.04C28.9602 59.36 36.4802 52.96 46.5602 51.36" stroke="#6AB339" stroke-width="2" stroke-miterlimit="10" stroke-linejoin="round"/>
<path d="M32.3201 45.68L28.0001 41.36H11.0401C9.68014 41.36 8.64014 40.32 8.64014 38.96V24.56C8.64014 23.2 9.68014 22.16 11.0401 22.16H34.2401C35.6001 22.16 36.6401 23.2 36.6401 24.56V38.96C36.6401 40.32 35.6001 41.36 34.2401 41.36H32.3201V45.68Z" stroke="#6AB339" stroke-width="2" stroke-miterlimit="10" stroke-linecap="round" stroke-linejoin="round"/>
<path d="M21.8397 33.84C22.7234 33.84 23.4397 33.1237 23.4397 32.24C23.4397 31.3564 22.7234 30.64 21.8397 30.64C20.9561 30.64 20.2397 31.3564 20.2397 32.24C20.2397 33.1237 20.9561 33.84 21.8397 33.84Z" fill="#6AB339"/>
<path d="M15.9198 33.84C16.8035 33.84 17.5198 33.1237 17.5198 32.24C17.5198 31.3564 16.8035 30.64 15.9198 30.64C15.0362 30.64 14.3198 31.3564 14.3198 32.24C14.3198 33.1237 15.0362 33.84 15.9198 33.84Z" fill="#6AB339"/>
<path d="M27.6798 33.84C28.5635 33.84 29.2798 33.1237 29.2798 32.24C29.2798 31.3564 28.5635 30.64 27.6798 30.64C26.7962 30.64 26.0798 31.3564 26.0798 32.24C26.0798 33.1237 26.7962 33.84 27.6798 33.84Z" fill="#6AB339"/>
</svg>
