<svg width="81" height="80" viewBox="0 0 81 80" fill="none" xmlns="http://www.w3.org/2000/svg">
<path d="M35.54 58.88C47.8229 58.88 57.78 48.9228 57.78 36.64C57.78 24.3572 47.8229 14.4 35.54 14.4C23.2572 14.4 13.3 24.3572 13.3 36.64C13.3 48.9228 23.2572 58.88 35.54 58.88Z" stroke="#6AB339" stroke-width="2" stroke-miterlimit="10" stroke-linecap="round" stroke-linejoin="round"/>
<path d="M35.5402 52.9599C44.5535 52.9599 51.8602 45.6532 51.8602 36.6399C51.8602 27.6267 44.5535 20.3199 35.5402 20.3199C26.5269 20.3199 19.2202 27.6267 19.2202 36.6399C19.2202 45.6532 26.5269 52.9599 35.5402 52.9599Z" stroke="#6AB339" stroke-width="1.5" stroke-miterlimit="10" stroke-linecap="round" stroke-linejoin="round"/>
<path d="M31.5396 26C31.1396 26.16 30.6596 26.32 30.2596 26.56C29.6196 26.88 29.0596 27.28 28.5796 27.68" stroke="#6AB339" stroke-miterlimit="10" stroke-linecap="round" stroke-linejoin="round"/>
<path d="M46.9804 36.64C46.9804 30.32 41.8604 25.28 35.6204 25.28" stroke="#6AB339" stroke-miterlimit="10" stroke-linecap="round" stroke-linejoin="round"/>
<path d="M48.3398 55.1999L60.7398 67.5999C62.3398 69.1999 64.8998 69.1999 66.4998 67.5999C68.0998 65.9999 68.0998 63.4399 66.4998 61.8399L54.0998 49.4399" stroke="#6AB339" stroke-width="2" stroke-miterlimit="10" stroke-linecap="round" stroke-linejoin="round"/>
<path d="M54.1797 61.3601L59.8597 55.6801" stroke="#6AB339" stroke-miterlimit="10" stroke-linecap="round" stroke-linejoin="round"/>
</svg>
