<svg width="80" height="80" viewBox="0 0 80 80" fill="none" xmlns="http://www.w3.org/2000/svg">
<path d="M61.2803 26.72H39.2803" stroke="#6AB339" stroke-miterlimit="10" stroke-linecap="round" stroke-linejoin="round"/>
<path d="M61.2803 22.5601V26.7201" stroke="#6AB339" stroke-width="2" stroke-miterlimit="10" stroke-linecap="round" stroke-linejoin="round"/>
<path d="M39.2803 26.7201V22.5601" stroke="#6AB339" stroke-width="2" stroke-miterlimit="10" stroke-linecap="round" stroke-linejoin="round"/>
<path d="M39.3597 26.72L36.7197 30.32" stroke="#6AB339" stroke-width="2" stroke-miterlimit="10" stroke-linecap="round" stroke-linejoin="round"/>
<path d="M34.8799 65.6H65.6799C66.7999 65.6 67.6799 64.72 67.6799 63.52V35.6C67.6799 35.12 67.5199 34.72 67.1999 34.32L61.1199 26.72" stroke="#6AB339" stroke-width="2" stroke-miterlimit="10" stroke-linecap="round" stroke-linejoin="round"/>
<path d="M63.4401 22.56H37.1201V15.2C37.1201 14.72 37.4401 14.4 37.9201 14.4H62.6401C63.1201 14.4 63.4401 14.72 63.4401 15.2V22.56Z" stroke="#6AB339" stroke-width="2" stroke-miterlimit="10" stroke-linecap="round" stroke-linejoin="round"/>
<path d="M67.8399 38.48H45.4399V60.08H67.8399V38.48Z" stroke="#6AB339" stroke-width="1.5" stroke-miterlimit="10"/>
<path d="M36 65.6H13.6C13.12 65.6 12.8 65.28 12.8 64.8V31.2C12.8 30.72 13.12 30.4 13.6 30.4H36C36.48 30.4 36.8 30.72 36.8 31.2V64.8C36.8 65.28 36.48 65.6 36 65.6Z" stroke="#6AB339" stroke-width="2" stroke-miterlimit="10" stroke-linecap="round" stroke-linejoin="round"/>
<path d="M20.56 46.5599C21.7087 46.5599 22.64 45.6287 22.64 44.4799C22.64 43.3311 21.7087 42.3999 20.56 42.3999C19.4112 42.3999 18.48 43.3311 18.48 44.4799C18.48 45.6287 19.4112 46.5599 20.56 46.5599Z" fill="#6AB339"/>
<path d="M20.56 53.5999C21.7087 53.5999 22.64 52.6687 22.64 51.5199C22.64 50.3712 21.7087 49.4399 20.56 49.4399C19.4112 49.4399 18.48 50.3712 18.48 51.5199C18.48 52.6687 19.4112 53.5999 20.56 53.5999Z" fill="#6AB339"/>
<path d="M20.56 60.5599C21.7087 60.5599 22.64 59.6287 22.64 58.4799C22.64 57.3311 21.7087 56.3999 20.56 56.3999C19.4112 56.3999 18.48 57.3311 18.48 58.4799C18.48 59.6287 19.4112 60.5599 20.56 60.5599Z" fill="#6AB339"/>
<path d="M20.56 39.5999C21.7087 39.5999 22.64 38.6687 22.64 37.5199C22.64 36.3712 21.7087 35.4399 20.56 35.4399C19.4112 35.4399 18.48 36.3712 18.48 37.5199C18.48 38.6687 19.4112 39.5999 20.56 39.5999Z" fill="#6AB339"/>
<path d="M29.04 46.5599C30.1887 46.5599 31.12 45.6287 31.12 44.4799C31.12 43.3311 30.1887 42.3999 29.04 42.3999C27.8912 42.3999 26.96 43.3311 26.96 44.4799C26.96 45.6287 27.8912 46.5599 29.04 46.5599Z" fill="#6AB339"/>
<path d="M29.04 53.5999C30.1887 53.5999 31.12 52.6687 31.12 51.5199C31.12 50.3712 30.1887 49.4399 29.04 49.4399C27.8912 49.4399 26.96 50.3712 26.96 51.5199C26.96 52.6687 27.8912 53.5999 29.04 53.5999Z" fill="#6AB339"/>
<path d="M29.04 60.5599C30.1887 60.5599 31.12 59.6287 31.12 58.4799C31.12 57.3311 30.1887 56.3999 29.04 56.3999C27.8912 56.3999 26.96 57.3311 26.96 58.4799C26.96 59.6287 27.8912 60.5599 29.04 60.5599Z" fill="#6AB339"/>
<path d="M29.04 39.5999C30.1887 39.5999 31.12 38.6687 31.12 37.5199C31.12 36.3712 30.1887 35.4399 29.04 35.4399C27.8912 35.4399 26.96 36.3712 26.96 37.5199C26.96 38.6687 27.8912 39.5999 29.04 39.5999Z" fill="#6AB339"/>
<path d="M56.6396 43.28V55.2" stroke="#6AB339" stroke-width="3" stroke-miterlimit="10"/>
<path d="M62.6397 49.28H50.7197" stroke="#6AB339" stroke-width="3" stroke-miterlimit="10"/>
</svg>
