<svg width="22" height="16" viewBox="0 0 22 16" fill="none" xmlns="http://www.w3.org/2000/svg">
<path d="M21.1335 9.33333H0.866829C0.600163 9.33333 0.333496 9.06667 0.333496 8.8V7.2C0.333496 6.93333 0.600163 6.66667 0.866829 6.66667H21.1335C21.4002 6.66667 21.6668 6.93333 21.6668 7.2V8.8C21.6668 9.06667 21.4002 9.33333 21.1335 9.33333ZM21.1335 13.3333H0.866829C0.600163 13.3333 0.333496 13.6 0.333496 13.8667V15.4667C0.333496 15.7333 0.600163 16 0.866829 16H21.1335C21.4002 16 21.6668 15.7333 21.6668 15.4667V13.8667C21.6668 13.6 21.4002 13.3333 21.1335 13.3333ZM21.1335 0H0.866829C0.600163 0 0.333496 0.266667 0.333496 0.533333V2.13333C0.333496 2.4 0.600163 2.66667 0.866829 2.66667H21.1335C21.4002 2.66667 21.6668 2.4 21.6668 2.13333V0.533333C21.6668 0.266667 21.4002 0 21.1335 0Z" fill="white"/>
</svg>
