<svg width="36" height="36" viewBox="0 0 36 36" fill="none" xmlns="http://www.w3.org/2000/svg">
<circle cx="18" cy="18" r="18" fill="white"/>
<path fill-rule="evenodd" clip-rule="evenodd" d="M18 0C8.0589 0 0 8.0589 0 18C0 27.9411 8.0589 36 18 36C27.9411 36 36 27.9411 36 18C36 8.0589 27.9411 0 18 0ZM19.8762 18.7906V28.5836H15.8243V18.791H13.8V15.4163H15.8243V13.3902C15.8243 10.6371 16.9673 9 20.2149 9H22.9186V12.3751H21.2286C19.9644 12.3751 19.8808 12.8467 19.8808 13.7269L19.8762 15.4159H22.9377L22.5794 18.7906H19.8762Z" fill="#3B5998"/>
</svg>
