<svg xmlns="http://www.w3.org/2000/svg" xmlns:xlink="http://www.w3.org/1999/xlink">
        <symbol id="apple-icon" viewBox="0 0 25 31" xmlns="http://www.w3.org/2000/svg">
            <path d="M20.4 16.76C20.4 13.04 23.52 11.24 23.64 11.12C21.84 8.60004 19.2 8.24004 18.24 8.12004C15.96 7.88004 13.68 9.44004 12.6 9.44004C11.4 9.44004 9.6 8.12004 7.68 8.12004C5.16 8.12004 2.88001 9.56004 1.56001 11.84C-1.07999 16.4 0.840007 23.12 3.36001 26.84C4.68001 28.64 6.12001 30.68 8.04001 30.56C9.96001 30.44 10.68 29.36 12.96 29.36C15.24 29.36 15.84 30.56 17.88 30.56C19.92 30.56 21.24 28.76 22.44 26.96C23.88 24.92 24.48 22.88 24.48 22.76C24.36 22.64 20.4 21.2 20.4 16.76Z" fill="white" />
            <path d="M16.6798 5.72001C17.6398 4.40001 18.3598 2.72001 18.2398 0.920013C16.7998 1.04001 14.8798 1.88001 13.9198 3.20001C12.9598 4.28001 12.1198 6.08001 12.3598 7.76001C13.9198 7.88001 15.5998 6.92001 16.6798 5.72001Z" fill="white" />
        </symbol>
        <symbol id="arrow-right" viewBox="0 0 32 6" xmlns="http://www.w3.org/2000/svg">
            <path d="M32 3L27 0.113249V5.88675L32 3ZM0 3.5H27.5V2.5H0V3.5Z" fill="#D1D2D6" />
        </symbol>
        <symbol id="cart" viewBox="0 0 21 19" xmlns="http://www.w3.org/2000/svg">
            <path d="M19.5 3H5.9C5.8 3 5.7 2.9 5.7 2.9L4.9 0.7C4.8 0.3 4.4 0 4 0H0.4L0 2H3.1C3.2 2 3.3 2.1 3.3 2.1L6 10L5 13.8C4.9 14.1 5 14.4 5.2 14.7C5.4 14.9 5.7 15 6 15H16.3C16.4 15 16.5 14.9 16.5 14.9L17 13.2C17 13.1 17 13.1 16.9 13.1H7.4C7.3 13.1 7.3 13 7.3 13L7.7 11.3C7.7 11.2 7.8 11.1 7.9 11.1H17C17.4 11.1 17.8 10.8 17.9 10.4L20.1 3.9C20.2 3.4 20 3 19.5 3ZM16.1 9H7.9C7.8 9 7.7 8.9 7.7 8.9L6.4 5.1C6.4 5 6.4 5 6.5 5H17.4C17.5 5 17.5 5.1 17.5 5.1L16.3 8.8C16.3 8.9 16.2 9 16.1 9ZM7.5 19C6.7 19 6 18.3 6 17.5C6 16.7 6.7 16 7.5 16C8.3 16 9 16.7 9 17.5C9 18.3 8.3 19 7.5 19ZM13.5 19C12.7 19 12 18.3 12 17.5C12 16.7 12.7 16 13.5 16C14.3 16 15 16.7 15 17.5C15 18.3 14.3 19 13.5 19Z" fill="inherit" />
        </symbol>
        <symbol id="clock" viewBox="0 0 14 14" xmlns="http://www.w3.org/2000/svg">
            <path d="M7 13C10.3137 13 13 10.3137 13 7C13 3.68629 10.3137 1 7 1C3.68629 1 1 3.68629 1 7C1 10.3137 3.68629 13 7 13Z" stroke="inherit" stroke-width="1.1" stroke-miterlimit="10" stroke-linecap="round" stroke-linejoin="round" />
            <path d="M6.80005 3.30005V7.30005H10.8" stroke="inherit" stroke-width="1.1" stroke-miterlimit="10" stroke-linejoin="round" />
        </symbol>
        <symbol id="google-play-icon" viewBox="0 0 28 29" xmlns="http://www.w3.org/2000/svg">
            <path fill-rule="evenodd" clip-rule="evenodd" d="M0.759766 14.52V1.91998C0.759766 1.19998 1.35977 0.599976 1.95977 0.599976C2.55977 0.599976 2.79977 0.719975 3.15977 0.959975L26.3198 13.68C26.7998 13.92 27.0398 14.28 27.0398 14.64C27.0398 15 26.7998 15.36 26.3198 15.6L3.15977 28.32C2.91977 28.44 2.55977 28.68 1.95977 28.68C1.35977 28.68 0.759766 28.08 0.759766 27.36V14.52Z" fill="url(#paint0_linear)" />
            <path fill-rule="evenodd" clip-rule="evenodd" d="M15.7597 14.64L1.71973 0.599976C1.83973 0.599976 1.83972 0.599976 1.95972 0.599976C2.55972 0.599976 2.79972 0.719975 3.15972 0.959975L20.1997 10.32L15.7597 14.64Z" fill="url(#paint1_linear)" />
            <path fill-rule="evenodd" clip-rule="evenodd" d="M20.0798 18.84L15.7598 14.52L20.1998 10.08L26.3198 13.44C26.7998 13.68 27.0398 14.04 27.0398 14.4C27.0398 14.76 26.7998 15.12 26.3198 15.36L20.0798 18.84Z" fill="url(#paint2_linear)" />
            <path fill-rule="evenodd" clip-rule="evenodd" d="M1.83984 28.44L15.7599 14.52L20.0798 18.84L3.15985 28.08C2.79985 28.32 2.55984 28.44 1.83984 28.44C1.95984 28.44 1.95984 28.44 1.83984 28.44Z" fill="url(#paint3_linear)" />
            <defs>
                <linearGradient id="paint0_linear" x1="8.52064" y1="-1.1117" x2="15.2385" y2="26.4774" gradientUnits="userSpaceOnUse">
                    <stop stop-color="#006884" />
                    <stop offset="1" stop-color="#8AD1D0" />
                </linearGradient>
                <linearGradient id="paint1_linear" x1="0.328567" y1="2.81254" x2="18.6358" y2="12.7095" gradientUnits="userSpaceOnUse">
                    <stop stop-color="#24BBB6" />
                    <stop offset="1" stop-color="#DBE692" />
                </linearGradient>
                <linearGradient id="paint2_linear" x1="21.393" y1="19.3441" x2="21.393" y2="9.80603" gradientUnits="userSpaceOnUse">
                    <stop stop-color="#FCC072" />
                    <stop offset="1" stop-color="#F58A5B" />
                </linearGradient>
                <linearGradient id="paint3_linear" x1="3.87348" y1="30.9229" x2="18.3355" y2="16.2047" gradientUnits="userSpaceOnUse">
                    <stop stop-color="#712B8F" />
                    <stop offset="1" stop-color="#EA1D27" />
                </linearGradient>
            </defs>
        </symbol>
        <symbol id="main-top-corner" xmlns="http://www.w3.org/2000/svg" viewBox="0 0 80 100" preserveAspectRatio="none">
            <defs><style>.cls-1{fill:#fff;}</style></defs>
            <path class="cls-1" d="M0,0,36.58,73.17A48.56,48.56,0,0,0,80,100H0Z" />
        </symbol>
        <symbol id="menu-icon" viewBox="0 0 22 16" xmlns="http://www.w3.org/2000/svg">
            <path d="M21.1335 9.33333H0.866829C0.600163 9.33333 0.333496 9.06667 0.333496 8.8V7.2C0.333496 6.93333 0.600163 6.66667 0.866829 6.66667H21.1335C21.4002 6.66667 21.6668 6.93333 21.6668 7.2V8.8C21.6668 9.06667 21.4002 9.33333 21.1335 9.33333ZM21.1335 13.3333H0.866829C0.600163 13.3333 0.333496 13.6 0.333496 13.8667V15.4667C0.333496 15.7333 0.600163 16 0.866829 16H21.1335C21.4002 16 21.6668 15.7333 21.6668 15.4667V13.8667C21.6668 13.6 21.4002 13.3333 21.1335 13.3333ZM21.1335 0H0.866829C0.600163 0 0.333496 0.266667 0.333496 0.533333V2.13333C0.333496 2.4 0.600163 2.66667 0.866829 2.66667H21.1335C21.4002 2.66667 21.6668 2.4 21.6668 2.13333V0.533333C21.6668 0.266667 21.4002 0 21.1335 0Z" fill="white" />
        </symbol>
        <symbol id="user" viewBox="0 0 17 19" xmlns="http://www.w3.org/2000/svg">
            <path d="M8 10C5.2 10 3 7.8 3 5C3 2.2 5.2 0 8 0C10.8 0 13 2.2 13 5C13 7.8 10.8 10 8 10ZM8 2C6.3 2 5 3.3 5 5C5 6.7 6.3 8 8 8C9.7 8 11 6.7 11 5C11 3.3 9.7 2 8 2ZM15 19H1C0.7 19 0.4 18.9 0.2 18.6C0 18.4 0 18 0 17.7C1 13.7 4.3 11 8 11C11.7 11 14.9 13.8 16 17.7C16.1 18 16 18.3 15.8 18.6C15.6 18.9 15.3 19 15 19ZM2.4 17H13.6C12.5 14.6 10.4 13 8 13C5.6 13 3.5 14.6 2.4 17Z" fill="#6AB339" />
        </symbol>
    </svg>