<svg width="20" height="20" viewBox="0 0 20 20" fill="none" xmlns="http://www.w3.org/2000/svg">
<path d="M14.718 6.31258L14.7177 6.32406V6.33553C14.7177 8.36211 13.4289 10.7573 12.0073 12.7473C11.3125 13.7198 10.6161 14.5548 10.0929 15.1469C9.98709 15.2666 9.88857 15.3762 9.79877 15.4748C9.70896 15.3762 9.61044 15.2666 9.50468 15.1469C8.98144 14.5548 8.285 13.7198 7.59025 12.7473C6.16862 10.7573 4.87983 8.36211 4.87983 6.33553C4.87983 3.73594 7.0484 1.60005 9.79877 1.60005C12.5713 1.60005 14.7915 3.75141 14.718 6.31258ZM9.2486 16.0587C9.5885 16.4303 9.79877 16.64 9.79877 16.64L9.2486 16.0587Z" stroke="#D1D2D6" stroke-width="1.6"/>
<circle cx="9.76794" cy="6.56005" r="2.28" stroke="#D1D2D6" stroke-width="1.2"/>
<path d="M5.49253 13.76H3.71834L2.63989 18.8H17.0399L15.9614 13.76H14.1873" stroke="#D1D2D6" stroke-width="1.4" stroke-miterlimit="10" stroke-linecap="round" stroke-linejoin="round"/>
</svg>
